<?xml version="1.0" encoding="UTF-8" standalone="no"?>
<svg
   xmlns:dc="http://purl.org/dc/elements/1.1/"
   xmlns:cc="http://creativecommons.org/ns#"
   xmlns:rdf="http://www.w3.org/1999/02/22-rdf-syntax-ns#"
   xmlns:svg="http://www.w3.org/2000/svg"
   xmlns="http://www.w3.org/2000/svg"
   xmlns:xlink="http://www.w3.org/1999/xlink"
   xmlns:sodipodi="http://sodipodi.sourceforge.net/DTD/sodipodi-0.dtd"
   xmlns:inkscape="http://www.inkscape.org/namespaces/inkscape"
   version="1.1"
   id="svg2816"
   height="64px"
   width="64px"
   inkscape:version="0.92.3 (2405546, 2018-03-11)"
   sodipodi:docname="ImportDatum.svg">
  <sodipodi:namedview
     pagecolor="#ffffff"
     bordercolor="#666666"
     borderopacity="1"
     objecttolerance="10"
     gridtolerance="10"
     guidetolerance="10"
     inkscape:pageopacity="0"
     inkscape:pageshadow="2"
     inkscape:window-width="1452"
     inkscape:window-height="932"
     id="namedview8"
     showgrid="true"
     inkscape:snap-global="true"
     inkscape:zoom="5"
     inkscape:cx="23.266555"
     inkscape:cy="26.712115"
     inkscape:window-x="119"
     inkscape:window-y="0"
     inkscape:window-maximized="0"
     inkscape:current-layer="svg2816"
     inkscape:snap-bbox="true">
    <inkscape:grid
       type="xygrid"
       id="grid2985"
       empspacing="2"
       visible="true"
       enabled="true"
       snapvisiblegridlinesonly="true" />
  </sodipodi:namedview>
  <defs
     id="defs2818">
    <linearGradient
       id="linearGradient3895-9">
      <stop
         style="stop-color:#729fcf;stop-opacity:1;"
         offset="0"
         id="stop3897-3" />
      <stop
         style="stop-color:#204a87;stop-opacity:1;"
         offset="1"
         id="stop3899-6" />
    </linearGradient>
    <linearGradient
       inkscape:collect="always"
       xlink:href="#linearGradient3774"
       id="linearGradient4316"
       gradientUnits="userSpaceOnUse"
       gradientTransform="matrix(-0.51964051,0,0,0.50042191,1386.3532,982.21378)"
       x1="288.11227"
       y1="358.15811"
       x2="372.52457"
       y2="7.5416322" />
    <linearGradient
       inkscape:collect="always"
       id="linearGradient3774">
      <stop
         style="stop-color:#4e9a06;stop-opacity:1"
         offset="0"
         id="stop3776" />
      <stop
         style="stop-color:#8ae234;stop-opacity:1"
         offset="1"
         id="stop3778" />
    </linearGradient>
  </defs>
  <metadata
     id="metadata2821">
    <rdf:RDF>
      <cc:Work
         rdf:about="">
        <dc:format>image/svg+xml</dc:format>
        <dc:type
           rdf:resource="http://purl.org/dc/dcmitype/StillImage" />
        <dc:title />
        <dc:title>Path-Heights</dc:title>
        <dc:date>2016-05-15</dc:date>
        <dc:relation>http://www.freecadweb.org/wiki/index.php?title=Artwork</dc:relation>
        <dc:publisher>
          <cc:Agent>
            <dc:title>FreeCAD</dc:title>
          </cc:Agent>
        </dc:publisher>
        <dc:identifier>FreeCAD/src/Mod/Path/Gui/Resources/icons/Path-Heights.svg</dc:identifier>
        <dc:rights>
          <cc:Agent>
            <dc:title>FreeCAD LGPL2+</dc:title>
          </cc:Agent>
        </dc:rights>
        <cc:license>https://www.gnu.org/copyleft/lesser.html</cc:license>
        <dc:contributor>
          <cc:Agent>
            <dc:title>[agryson] Alexander Gryson</dc:title>
          </cc:Agent>
        </dc:contributor>
      </cc:Work>
    </rdf:RDF>
  </metadata>
  <g
     id="g854"
     transform="matrix(0.8,0,0,0.8,17.963734,3.917984)">
    <g
       inkscape:transform-center-y="-7.8791296"
       inkscape:transform-center-x="-20.335756"
       transform="matrix(0.95725253,-0.00447065,0.00447065,0.95725253,9.0924848,-2.4010318)"
       id="g4269">
      <path
         style="fill:none;stroke:#172a04;stroke-width:8;stroke-linecap:round;stroke-linejoin:miter;stroke-opacity:1"
         d="M 8.5539856,45.653481 36.927779,35.989795"
         id="path6397-3"
         inkscape:connector-curvature="0"
         sodipodi:nodetypes="cc" />
      <g
         id="g4191"
         transform="rotate(21.645857,-11.838654,-11.729304)">
        <path
           sodipodi:nodetypes="sssss"
           inkscape:connector-curvature="0"
           id="path6514"
           d="m 56.301546,9.8662949 c 2.380189,2.4586491 2.356371,7.1457861 0.562268,8.4303771 -1.794104,1.284591 -3.882477,1.614145 -6.262666,-0.844506 -2.380188,-2.45865 -3.71292,-5.928709 -2.506121,-7.9449766 1.206798,-2.0162674 5.82633,-2.0995447 8.206519,0.3591055 z"
           style="fill:#8ae234;fill-opacity:1;stroke:#172a04;stroke-width:2.00000024;stroke-linecap:round;stroke-linejoin:round;stroke-miterlimit:32.20000076;stroke-opacity:1" />
        <path
           sodipodi:nodetypes="cccc"
           inkscape:connector-curvature="0"
           id="path6475-3-5"
           d="M 57.675023,17.196253 C 59.125757,14.079173 55.786493,7.1175596 49.88913,8.2225984 L 61.683856,6.0125218 Z"
           style="fill:#73d216;stroke:#172a04;stroke-width:2;stroke-linecap:round;stroke-linejoin:round;stroke-miterlimit:32.20000076;stroke-opacity:1" />
        <path
           inkscape:connector-curvature="0"
           id="path6571"
           d="m 54.164074,9.3183964 6.831678,-1.301668"
           style="fill:none;stroke:#8ae234;stroke-width:2;stroke-linecap:butt;stroke-linejoin:miter;stroke-opacity:1" />
        <path
           sodipodi:nodetypes="cccc"
           inkscape:connector-curvature="0"
           id="path6475-3-5-1"
           d="M 57.656587,17.221263 C 59.10732,14.104182 55.768056,7.1425689 49.870693,8.2476077 L 61.665419,6.0375311 Z"
           style="fill:none;stroke:#172a04;stroke-width:2;stroke-linecap:round;stroke-linejoin:round;stroke-miterlimit:32.20000076;stroke-opacity:1" />
        <path
           sodipodi:nodetypes="cc"
           inkscape:connector-curvature="0"
           id="path6397-3-7"
           d="M 28.282635,34.084733 51.090922,14.636314"
           style="fill:none;stroke:#73d216;stroke-width:4;stroke-linecap:round;stroke-linejoin:miter;stroke-opacity:1" />
        <path
           sodipodi:nodetypes="cc"
           inkscape:connector-curvature="0"
           id="path6397-3-7-7"
           d="M 27.716662,33.28548 50.524948,13.83706"
           style="fill:none;stroke:#8ae234;stroke-width:2;stroke-linecap:round;stroke-linejoin:miter;stroke-opacity:1" />
      </g>
    </g>
    <g
       transform="matrix(0.72190456,0,0,0.72190456,42.495633,3.2176358)"
       id="g843">
      <path
         style="fill:none;stroke:#0b1521;stroke-width:10.60819435;stroke-linecap:round;stroke-linejoin:miter;stroke-opacity:1"
         d="m -36.49556,13.869784 0.05234,38.791633"
         id="path6419"
         inkscape:connector-curvature="0"
         sodipodi:nodetypes="cc" />
      <path
         style="fill:none;stroke:#3465a4;stroke-width:5.30409718;stroke-linecap:round;stroke-linejoin:miter;stroke-opacity:1"
         d="m -36.49556,13.869784 0.05234,38.791633"
         id="path6419-6"
         inkscape:connector-curvature="0"
         sodipodi:nodetypes="cc" />
      <path
         style="fill:none;stroke:#729fcf;stroke-width:2.65204859;stroke-linecap:round;stroke-linejoin:miter;stroke-opacity:1"
         d="m -37.797076,13.616019 0.0018,39.045398"
         id="path6419-6-2"
         inkscape:connector-curvature="0"
         sodipodi:nodetypes="cc" />
      <path
         style="fill:#3465a4;stroke:#0b1521;stroke-width:2.65204859;stroke-linecap:round;stroke-linejoin:round;stroke-miterlimit:32.20000076;stroke-opacity:1"
         d="m -27.740234,10.53933 c -3.648282,4.386036 -14.197948,3.528654 -17.629379,0.340835 l 8.044758,-13.5440778 z"
         id="path6475"
         inkscape:connector-curvature="0"
         sodipodi:nodetypes="cccc" />
      <path
         style="fill:none;stroke:#729fcf;stroke-width:2.65204859;stroke-linecap:round;stroke-linejoin:miter;stroke-miterlimit:32.20000076;stroke-opacity:1"
         d="m -31.256872,10.01558 c -2.098638,1.3759 -7.449344,1.389585 -10.569195,0.0178 L -37.144532,2.004 Z"
         id="path6475-6"
         inkscape:connector-curvature="0"
         sodipodi:nodetypes="cccc" />
    </g>
    <g
       inkscape:transform-center-y="10.854199"
       inkscape:transform-center-x="-10.904333"
       transform="matrix(0.92971237,0.22800722,-0.22800722,0.92971237,-1.5914012,3.4277636)"
       id="g4177">
      <path
         style="fill:none;stroke:#280000;stroke-width:8;stroke-linecap:round;stroke-linejoin:miter;stroke-opacity:1"
         d="M 28.282635,34.084733 48.721677,45.429535"
         id="path6397"
         inkscape:connector-curvature="0"
         sodipodi:nodetypes="cc" />
      <path
         style="fill:none;stroke:#cc0000;stroke-width:4;stroke-linecap:round;stroke-linejoin:miter;stroke-opacity:1"
         d="M 28.282635,34.084733 48.721677,45.429535"
         id="path6397-5"
         inkscape:connector-curvature="0"
         sodipodi:nodetypes="cc" />
      <path
         style="fill:none;stroke:#ef2929;stroke-width:2;stroke-linecap:round;stroke-linejoin:miter;stroke-opacity:1"
         d="M 27.563165,34.802163 48.002207,46.146965"
         id="path6397-5-0"
         inkscape:connector-curvature="0"
         sodipodi:nodetypes="cc" />
      <path
         style="fill:#cc0000;stroke:#280000;stroke-width:2;stroke-linecap:round;stroke-linejoin:round;stroke-miterlimit:32.20000076;stroke-opacity:1"
         d="m 44.154236,49.799985 c -1.00857,-4.115837 4.453037,-9.683235 8.029404,-10.133289 l 4.620086,10.887343 z"
         id="path6475-3"
         inkscape:connector-curvature="0"
         sodipodi:nodetypes="cccc" />
      <path
         style="fill:none;stroke:#ef2929;stroke-width:2;stroke-linecap:round;stroke-linejoin:miter;stroke-miterlimit:32.20000076;stroke-opacity:1"
         d="m 46.097609,48.060608 c 0.127899,-1.831027 2.617666,-4.866574 4.923727,-5.991774 l 2.785967,6.402357 z"
         id="path6475-6-2"
         inkscape:connector-curvature="0"
         sodipodi:nodetypes="cccc" />
    </g>
  </g>
  <g
     id="g4310"
     transform="matrix(-0.01476316,0.16525955,0.14183011,0.01344895,-120.31716,-171.77752)"
     inkscape:transform-center-x="0.2653861"
     inkscape:transform-center-y="2.2577857">
    <path
       id="path4312"
       d="m 1145.5648,1074.1543 c 18.5937,-18.383 48.2169,-28.9064 88.8688,-31.5737 v -37.4326 c 0,-4.0003 1.9294,-6.80966 5.7868,-8.43006 4.0547,-1.61639 7.5171,-0.95178 10.3849,2.00121 l 75.9581,73.15065 c 1.8799,1.8121 2.8184,3.9543 2.8184,6.4303 0,2.4767 -0.9389,4.6185 -2.8184,6.429 l -75.9602,73.1502 c -1.7833,1.81 -4.0064,2.7148 -6.6772,2.7148 -1.1865,0 -2.4222,-0.2382 -3.7083,-0.7141 -3.8572,-1.6204 -5.7882,-4.4273 -5.7882,-8.4296 v -35.8618 c -15.9228,1.2386 -29.1503,3.7387 -39.6881,7.5008 -10.5331,3.7627 -18.9637,9.0247 -25.2946,15.7879 -14.738,15.7158 -19.9806,42.6214 -15.7274,80.7237 0.1953,2.4775 -0.9389,4.0963 -3.4125,4.858 -0.2967,0.097 -0.7414,0.142 -1.3349,0.142 -1.9778,0 -3.361,-0.8095 -4.154,-2.4285 l -2.9667,-5.7148 c -1.3832,-2.6676 -3.3858,-6.9784 -6.007,-12.9313 -2.6194,-5.9556 -4.9969,-11.9071 -7.1237,-17.8612 -2.1269,-5.9515 -4.0298,-12.5235 -5.7119,-19.7147 -1.6805,-7.194 -2.5219,-13.5508 -2.5219,-19.074 0,-32.0039 8.3606,-56.2428 25.078,-72.7222 z"
       inkscape:connector-curvature="0"
       style="opacity:1;fill:#8ae234;fill-opacity:1;stroke:#172a04;stroke-width:16.26075935;stroke-miterlimit:4;stroke-dasharray:none;stroke-opacity:1" />
    <path
       style="opacity:1;fill:url(#linearGradient4316);fill-opacity:1;stroke:none;stroke-width:34.75331116;stroke-miterlimit:4;stroke-dasharray:none;stroke-opacity:1"
       d="m 1252.6459,1025.0625 c 18.4441,17.7617 37.1632,35.1962 55.3062,53.3235 -19.0906,18.0067 -37.542,36.7844 -56.7747,54.6184 -0.018,-12.2743 -0.087,-24.5491 0.032,-36.8231 -26.4463,1.6409 -53.9694,3.575 -77.8197,17.2303 -17.0095,9.5803 -28.4884,27.8106 -34.5388,47.088 -3.5743,-21.5969 -1.2897,-45.3408 10.607,-63.6609 11.0273,-16.9013 29.5358,-25.7267 47.629,-30.3404 14.7839,-4.3279 30.2561,-4.0127 45.1276,-7.7257 7.8392,-4.3982 10.4187,-14.9284 9.2176,-23.8416 -0.062,-3.7919 -0.2886,-7.6325 -0.4323,-11.451 0.5488,0.5275 1.0977,1.055 1.6465,1.5825 z"
       id="path4314"
       inkscape:connector-curvature="0" />
  </g>
</svg>
