<?xml version="1.0" encoding="UTF-8" standalone="no"?>
<svg
   version="1.1"
   id="Layer_1"
   x="0px"
   y="0px"
   viewBox="0 0 31.999999 32.000001"
   xml:space="preserve"
   sodipodi:docname="Asm4_Export_PartsList.svg"
   width="32"
   height="32"
   inkscape:version="1.1.2 (0a00cf5339, 2022-02-04)"
   xmlns:inkscape="http://www.inkscape.org/namespaces/inkscape"
   xmlns:sodipodi="http://sodipodi.sourceforge.net/DTD/sodipodi-0.dtd"
   xmlns="http://www.w3.org/2000/svg"
   xmlns:svg="http://www.w3.org/2000/svg"><defs
     id="defs15" /><sodipodi:namedview
     id="namedview13"
     pagecolor="#ffffff"
     bordercolor="#666666"
     borderopacity="1.0"
     inkscape:pageshadow="2"
     inkscape:pageopacity="0.0"
     inkscape:pagecheckerboard="0"
     showgrid="false"
     inkscape:zoom="22.627417"
     inkscape:cx="6.3197668"
     inkscape:cy="19.246563"
     inkscape:window-width="2560"
     inkscape:window-height="1376"
     inkscape:window-x="0"
     inkscape:window-y="27"
     inkscape:window-maximized="1"
     inkscape:current-layer="Layer_1" /><style
     type="text/css"
     id="style2"><![CDATA[
	.st0{fill:#FFFFFF;}
	.st1{fill-rule:evenodd;clip-rule:evenodd;fill:#262626;}
	.st2{fill-rule:evenodd;clip-rule:evenodd;fill:#FF0000;}
]]></style><path
     style="fill:#f9f9f9;stroke:none;stroke-width:1px;stroke-linecap:butt;stroke-linejoin:miter;stroke-opacity:1"
     d="m 8.3939123,1.8517133 13.0297057,-0.04167 1.625133,0.3047123 5.075934,5.1410434 0.307316,1.5860665 -0.08074,16.0559935 H 8.3887036 l 0.00521,-23.0461456"
     id="path1013"
     sodipodi:nodetypes="cccccccc" /><g
     id="g10"
     transform="matrix(0.26043786,0,0,0.26043786,1.7631644,7.0899999e-8)"
     style="stroke-width:3.83969"><path
       class="st1"
       d="M 102.4,33.95 H 83.61 c -1.98,0 -4.73,-1.06 -6.03,-2.36 -1.3,-1.3 -2.09,-3.65 -2.09,-5.61 v -19.03 0 H 25.83 c -0.16,0 -0.29,0.08 -0.37,0.16 -0.14,0.09 -0.18,0.21 -0.18,0.38 v 87.74 c 0,0.12 0.09,0.29 0.16,0.37 0.09,0.13 0.26,0.16 0.38,0.16 h 12.96 l -2.23,6.92 H 23.7 c -1.46,0 -2.76,-0.59 -3.73,-1.55 -0.96,-0.96 -1.54,-2.26 -1.54,-3.73 V 5.32 c 0,-1.46 0.59,-2.76 1.54,-3.73 0.97,-0.97 2.31,-1.55 3.73,-1.55 H 79.01 C 79.13,0 79.25,0 79.38,0 c 0.58,0 1.18,0.25 1.59,0.62 h 0.08 c 0.09,0.05 0.13,0.09 0.21,0.16 l 27.27,27.61 c 0.46,0.46 0.8,1.09 0.8,1.8 0,0.21 -0.04,0.37 -0.08,0.6 V 97.4 c 0,1.46 -0.59,2.77 -1.55,3.73 -0.97,0.96 -2.27,1.55 -3.73,1.55 H 36.55 l 2.23,-6.92 h 63.06 c 0.16,0 0.16,-0.08 0.25,-0.16 0.13,-0.08 0.3,-0.26 0.3,-0.37 0,-23.45 0.01,-37.84 0.01,-61.28 z M 81.73,25.43 V 8.12 l 19.49,19.74 H 84.16 c -0.67,0 -1.26,-0.29 -1.72,-0.71 -0.43,-0.41 -0.71,-1.05 -0.71,-1.72 z"
       id="path4"
       style="stroke-width:3.83969"
       sodipodi:nodetypes="csssccscsscsccscsscscsccccscscsccscscsccscs" /><polygon
       class="st2"
       points="0,81.22 0,38.51 88.91,38.51 88.91,81.22 "
       id="polygon6"
       style="stroke-width:3.83969;fill:#b20000;fill-opacity:1" /><path
       class="st0"
       d="m 16.57,48.47 h 19.99 v 4.56 L 23.73,66.36 h 13.32 v 4.9 H 15.33 V 66.53 L 28.04,53.34 H 16.57 Z m 24.68,0 h 7.1 v 22.8 h -7.1 z m 12.88,0 H 65.9 c 2.56,0 4.48,0.6 5.76,1.82 1.27,1.21 1.91,2.94 1.91,5.19 0,2.3 -0.7,4.11 -2.09,5.4 -1.39,1.3 -3.52,1.95 -6.38,1.95 h -3.88 v 8.44 h -7.1 v -22.8 z m 7.11,9.74 h 1.74 c 1.38,0 2.34,-0.24 2.89,-0.71 0.55,-0.47 0.83,-1.08 0.83,-1.81 0,-0.72 -0.24,-1.32 -0.72,-1.82 -0.48,-0.5 -1.39,-0.75 -2.72,-0.75 h -2.03 v 5.09 z"
       id="path8"
       style="stroke-width:3.83969" /><path
       d="M 81.794281,102.30219 H 70.99428 V 87.442188 H 55.654279 V 102.30219 H 44.514278 l 18.640002,17.54 z"
       style="clip-rule:evenodd;fill:#b20000;fill-rule:evenodd;stroke-width:14.7432;fill-opacity:1"
       id="path2256" /></g></svg>
