<?xml version="1.0" encoding="UTF-8" standalone="no"?>
<!-- Svg Vector Icons : http://www.onlinewebfonts.com/icon -->

<svg
   version="1.1"
   x="0px"
   y="0px"
   viewBox="0 0 32 32"
   enable-background="new 0 0 1000 1000"
   xml:space="preserve"
   id="svg24"
   sodipodi:docname="Asm4_List_Liked_Files.svg"
   width="32"
   height="32"
   inkscape:version="1.1.2 (0a00cf5339, 2022-02-04)"
   xmlns:inkscape="http://www.inkscape.org/namespaces/inkscape"
   xmlns:sodipodi="http://sodipodi.sourceforge.net/DTD/sodipodi-0.dtd"
   xmlns="http://www.w3.org/2000/svg"
   xmlns:svg="http://www.w3.org/2000/svg"><defs
   id="defs28" /><sodipodi:namedview
   id="namedview26"
   pagecolor="#ffffff"
   bordercolor="#666666"
   borderopacity="1.0"
   inkscape:pageshadow="2"
   inkscape:pageopacity="0.0"
   inkscape:pagecheckerboard="0"
   showgrid="false"
   inkscape:zoom="32.538226"
   inkscape:cx="10.633647"
   inkscape:cy="16.672698"
   inkscape:window-width="2560"
   inkscape:window-height="1376"
   inkscape:window-x="0"
   inkscape:window-y="27"
   inkscape:window-maximized="1"
   inkscape:current-layer="g22" />
<metadata
   id="metadata2"> Svg Vector Icons : http://www.onlinewebfonts.com/icon </metadata>
<g
   id="g22"
   transform="matrix(0.03265282,0,0,0.03265282,-0.32661882,-0.32657326)"
   style="stroke-width:30.6252"><g
     transform="matrix(0.1,0,0,-0.1,0,511)"
     id="g20"
     style="stroke-width:30.6252"><path
       style="fill:#aaccff;stroke:none;stroke-width:306.252px;stroke-linecap:butt;stroke-linejoin:miter;stroke-opacity:1"
       d="m 392.12955,2926.6133 9351.41805,3.163 -50.475,1115.2575 -492.8851,508.9059 -8192.678,-28.2012 c 0,0 -666.44034,-370.4919 -666.44034,-422.4962 0,-52.0042 51.06039,-1176.629 51.06039,-1176.629 z"
       id="path1051" /><path
       style="fill:#f9f9f9;stroke:none;stroke-width:306.252px;stroke-linecap:butt;stroke-linejoin:miter;stroke-opacity:1"
       d="m 392.12956,2926.6133 9351.41804,3.163 -44.6188,-6906.7832 -489.3911,-450.0113 -8219.26737,13.2607 -683.20161,610.4315 z"
       id="path862" /><path
       d="M 865.1,4775.7 C 577.7,4695.2 343.9,4505.5 211.7,4243 91,4003.5 96.7,4258.4 102.5,46.5 l 5.7,-3838.2 46,-115 c 118.8,-297 310.4,-494.4 601.7,-620.9 l 118.8,-49.8 H 4985 c 4003,0 4114.1,1.9 4223.3,36.4 291.2,95.8 536.5,341.1 647.7,645.8 l 44.1,122.6 V 107.9 3988.2 l -46,124.6 c -109.2,298.9 -320,515.5 -618.9,638.1 l -101.6,42.2 -4091.1,3.8 c -3228.9,1.8 -4108.4,-2 -4177.4,-21.2 z m 8274.2,-431.1 c 124.6,-55.6 274,-216.5 321.9,-341.1 26.8,-72.8 34.5,-170.5 42.2,-459.9 l 7.7,-369.8 H 5006 501 V 3490 c 0,316.2 19.2,471.4 70.9,572.9 40.2,78.6 176.3,220.4 243.3,254.9 157.1,82.4 23,80.5 4217.6,76.6 l 4004.9,-3.8 z m 358.3,-4802 c 0,-3073.6 -1.9,-3223.1 -34.5,-3320.8 -47.9,-134.1 -193.6,-291.3 -323.8,-350.7 l -101.6,-46 H 5004.1 970.5 l -99.6,46 c -118.9,53.7 -260.7,197.4 -318.1,323.9 l -42.2,90.1 -5.7,3219.2 c -1.9,1770.6 0,3228.8 5.7,3242.2 5.7,21.1 887.2,24.9 4497.3,21.1 l 4489.7,-5.7 z"
       id="path4"
       style="stroke-width:30.6252" /><path
       d="m 1045.2,3978.6 c -174.4,-69 -151.4,-354.5 30.7,-390.9 120.7,-23 249.1,80.5 249.1,199.3 0,70.9 -57.5,155.2 -124.6,184 -74.7,30.6 -97.7,30.6 -155.2,7.6 z"
       id="path6"
       style="stroke-width:30.6252" /><path
       d="m 1848.1,3967.1 c -74.7,-36.4 -128.4,-141.8 -111.1,-218.4 15.3,-70.9 92,-147.5 162.9,-162.9 78.6,-17.2 182,36.4 218.4,115 38.3,78.6 38.3,93.9 0,172.5 -28.7,61.3 -124.6,124.6 -184,124.6 -13.4,-0.1 -51.7,-15.5 -86.2,-30.8 z"
       id="path8"
       style="stroke-width:30.6252" /><path
       d="m 2672.1,3970.9 c -63.2,-28.7 -120.7,-115 -120.7,-184 0,-70.9 57.5,-155.2 128.4,-184 195.4,-82.4 364.1,161 222.3,318.1 -63.3,69.1 -145.7,86.3 -230,49.9 z"
       id="path10"
       style="stroke-width:30.6252" /><g
       style="overflow:hidden;fill:currentColor;stroke-width:1470.01"
       id="g970"
       transform="matrix(6.3802554,0,0,-6.3802554,1733.3732,2617.8011)"><path
         d="M 160,352 A 32,32 0 0 1 128,320 V 192 a 32,32 0 0 1 32,-32 h 128 a 32,32 0 0 1 32,32 v 128 a 32,32 0 0 1 -32,32 z m 32,-64 h 64 v -64 h -64 z m 224,0 a 32,32 0 0 1 0,-64 h 448 a 32,32 0 0 1 0,64 z M 160,608 A 32,32 0 0 1 128,576 V 448 a 32,32 0 0 1 32,-32 h 128 a 32,32 0 0 1 32,32 v 128 a 32,32 0 0 1 -32,32 z m 32,-64 h 64 v -64 h -64 z m 224,0 a 32,32 0 0 1 0,-64 h 448 a 32,32 0 0 1 0,64 z M 160,864 A 32,32 0 0 1 128,832 V 704 a 32,32 0 0 1 32,-32 h 128 a 32,32 0 0 1 32,32 v 128 a 32,32 0 0 1 -32,32 z m 32,-64 h 64 v -64 h -64 z m 224,0 a 32,32 0 0 1 0,-64 h 448 a 32,32 0 0 1 0,64 z"
         id="path961"
         style="stroke-width:1470.01" /></g></g></g>
</svg>
