<?xml version="1.0" encoding="UTF-8" standalone="no"?>
<svg
   width="100"
   height="20"
   role="img"
   aria-label="patreon: donate"
   version="1.1"
   id="svg30"
   sodipodi:docname="Patreon_Donate.svg"
   inkscape:version="1.1.1 (3bf5ae0d25, 2021-09-20)"
   xmlns:inkscape="http://www.inkscape.org/namespaces/inkscape"
   xmlns:sodipodi="http://sodipodi.sourceforge.net/DTD/sodipodi-0.dtd"
   xmlns="http://www.w3.org/2000/svg"
   xmlns:svg="http://www.w3.org/2000/svg">
  <defs
     id="defs34" />
  <sodipodi:namedview
     id="namedview32"
     pagecolor="#ffffff"
     bordercolor="#666666"
     borderopacity="1.0"
     inkscape:pageshadow="2"
     inkscape:pageopacity="0.0"
     inkscape:pagecheckerboard="0"
     showgrid="false"
     inkscape:zoom="10"
     inkscape:cx="50.6"
     inkscape:cy="7.35"
     inkscape:window-width="1793"
     inkscape:window-height="981"
     inkscape:window-x="220"
     inkscape:window-y="0"
     inkscape:window-maximized="0"
     inkscape:current-layer="svg30" />
  <title
     id="title2">patreon: donate</title>
  <linearGradient
     id="s"
     x2="0"
     y2="44.72136"
     gradientTransform="matrix(1.4908329,0,0,0.4472136,33.327924,0)"
     x1="0"
     y1="0"
     gradientUnits="userSpaceOnUse">
    <stop
       offset="0"
       stop-color="#bbb"
       stop-opacity=".1"
       id="stop4" />
    <stop
       offset="1"
       stop-opacity=".1"
       id="stop6" />
  </linearGradient>
  <clipPath
     id="r">
    <rect
       width="100"
       height="20"
       rx="3"
       fill="#fff"
       id="rect9" />
  </clipPath>
  <rect
     x="34.543507"
     width="65.456001"
     height="20"
     fill="#007ec6"
     id="rect14"
     y="0"
     ry="4.7027712" />
  <rect
     style="fill:#ffffff;fill-opacity:1;stroke:none;stroke-width:0.83095;stroke-linecap:round;stroke-linejoin:round;stop-color:#000000"
     id="rect1412"
     width="21.14538"
     height="20.549372"
     x="33.002617"
     y="-0.15178244"
     ry="0" />
  <rect
     width="66.672073"
     height="20"
     fill="url(#s)"
     id="rect16"
     style="fill:url(#s);stroke-width:0.81653"
     x="33.327927"
     y="0" />
  <text
     aria-hidden="true"
     x="755"
     y="150"
     fill="#010101"
     fill-opacity=".3"
     transform="scale(0.1)"
     textLength="370"
     id="text24"
     style="font-style:normal;font-variant:normal;font-weight:normal;font-stretch:normal;font-size:110px;font-family:Verdana, Geneva, 'DejaVu Sans', sans-serif;-inkscape-font-specification:'Verdana, Geneva, DejaVu Sans, sans-serif, Normal';font-variant-ligatures:normal;font-variant-caps:normal;font-variant-numeric:normal;font-variant-east-asian:normal;text-anchor:middle;fill:#010101;fill-opacity:0.3;text-rendering:geometricPrecision"
     lengthAdjust="spacing"><tspan
       sodipodi:role="line"
       id="tspan929"
       x="755"
       y="150">Donate</tspan></text>
  <text
     x="755"
     y="140"
     transform="scale(0.1)"
     fill="#fff"
     textLength="370"
     id="text26"
     style="font-style:normal;font-variant:normal;font-weight:normal;font-stretch:normal;font-size:110px;font-family:Verdana, Geneva, 'DejaVu Sans', sans-serif;-inkscape-font-specification:'Verdana, Geneva, DejaVu Sans, sans-serif, Normal';font-variant-ligatures:normal;font-variant-caps:normal;font-variant-numeric:normal;font-variant-east-asian:normal;text-anchor:middle;fill:#ffffff;text-rendering:geometricPrecision"
     lengthAdjust="spacing"><tspan
       sodipodi:role="line"
       id="tspan909"
       x="755"
       y="140">Donate</tspan></text>
  <g
     id="g298"
     transform="matrix(0.031279,0,0,0.031279,28.205012,-5.927682)">
    <path
       style="fill:#ff5900"
       d="M 499.994,250.058 C 361.921,250.058 250,361.979 250,500.052 v 249.874 h 58.033 V 500.052 c 0,-106.011 85.949,-191.965 191.965,-191.965 106.016,0 191.965,85.949 191.965,191.965 0,103.028 -81.19,187.08 -183.072,191.725 -32.371,-0.265 -59.969,-5.519 -72.057,-12.957 v -82.504 c 18.041,11.813 39.619,18.7 62.794,18.7 63.386,0 114.765,-51.38 114.765,-114.765 0,-63.386 -51.38,-114.793 -114.765,-114.793 -63.386,0 -114.765,51.409 -114.765,114.793 v 249.68 c 37.879,-0.035 78.116,0.052 115.144,0 C 638.079,749.93 750,638.12 750,500.056 749.991,361.974 638.06,250.053 499.997,250.053 Z"
       id="path296" />
  </g>
</svg>
