<?xml version="1.0" encoding="UTF-8" standalone="no"?>
<!-- Created with Inkscape (http://www.inkscape.org/) -->

<svg
   xmlns:dc="http://purl.org/dc/elements/1.1/"
   xmlns:cc="http://creativecommons.org/ns#"
   xmlns:rdf="http://www.w3.org/1999/02/22-rdf-syntax-ns#"
   xmlns:svg="http://www.w3.org/2000/svg"
   xmlns="http://www.w3.org/2000/svg"
   xmlns:sodipodi="http://sodipodi.sourceforge.net/DTD/sodipodi-0.dtd"
   xmlns:inkscape="http://www.inkscape.org/namespaces/inkscape"
   width="48"
   height="48"
   viewBox="0 0 48.000001 48.000001"
   id="svg15825"
   version="1.1"
   inkscape:version="0.92.3 (2405546, 2018-03-11)"
   sodipodi:docname="Asm4_Fastener.svg">
  <defs
     id="defs15827" />
  <sodipodi:namedview
     id="base"
     pagecolor="#ffffff"
     bordercolor="#666666"
     borderopacity="1.0"
     inkscape:pageopacity="0.0"
     inkscape:pageshadow="2"
     inkscape:zoom="12.625"
     inkscape:cx="23.905846"
     inkscape:cy="24"
     inkscape:document-units="px"
     inkscape:current-layer="g15729"
     showgrid="false"
     units="px"
     inkscape:window-width="1416"
     inkscape:window-height="1014"
     inkscape:window-x="66"
     inkscape:window-y="0"
     inkscape:window-maximized="0" />
  <metadata
     id="metadata15830">
    <rdf:RDF>
      <cc:Work
         rdf:about="">
        <dc:format>image/svg+xml</dc:format>
        <dc:type
           rdf:resource="http://purl.org/dc/dcmitype/StillImage" />
        <dc:title />
      </cc:Work>
    </rdf:RDF>
  </metadata>
  <g
     inkscape:label="Layer 1"
     inkscape:groupmode="layer"
     id="layer1"
     transform="translate(0,-1004.3622)">
    <g
       transform="matrix(3.5433071,0,0,3.543307,-251.21513,856.76845)"
       id="g15729">
      <path
         inkscape:connector-curvature="0"
         id="path15723"
         d="m 74.774633,42.358912 4.626136,-0.290951 2.618565,3.171376 -0.08729,1.832997 -1.774805,3.258662 -0.203665,0.145474 -4.509756,0.232763 -2.734948,-3.113185 0.116383,-1.745711 z"
         style="opacity:1;fill:#ffaa00;fill-opacity:0.94117647;fill-rule:evenodd;stroke:none;stroke-width:1;stroke-linecap:round;stroke-linejoin:round;stroke-miterlimit:4;stroke-dasharray:none;stroke-dashoffset:0;stroke-opacity:1" />
      <path
         inkscape:connector-curvature="0"
         id="path15725"
         d="m 264.87011,177.59605 c -0.50725,0.63963 -0.9302,6.13175 -0.92353,6.91255 0.23933,2.91786 1.89682,5.66722 4.51528,6.63544 3.11831,1.23106 6.83159,2.02 9.4928,-0.0171 1.32369,-1.09058 3.41295,-3.79612 3.67422,-5.51845 0.11378,-0.50069 0.71397,-6.57116 -0.0736,-6.61688 -4.76785,0.21463 -9.5212,0.62667 -14.28787,0.81428 -0.70873,-0.73041 -1.23082,-1.68372 -2.06247,-2.26725 -0.11162,0.0191 -0.22324,0.0383 -0.33485,0.0574 z"
         style="opacity:1;fill:#ffaa00;fill-opacity:0.94117647;fill-rule:evenodd;stroke:none;stroke-width:1;stroke-linecap:round;stroke-linejoin:round;stroke-miterlimit:4;stroke-dasharray:none;stroke-dashoffset:0;stroke-opacity:1"
         transform="scale(0.28222222)"
         sodipodi:nodetypes="cccccccccc" />
      <g
         id="g13910">
        <path
           style="fill:none;stroke:#000000;stroke-width:0.28222224;stroke-linecap:round;stroke-linejoin:round;stroke-miterlimit:4;stroke-dasharray:none"
           id="23"
           d="m 74.686511,49.848483 -0.19492,2.223944"
           inkscape:connector-curvature="0"
           sodipodi:nodetypes="cc" />
        <path
           style="fill:none;stroke:#000000;stroke-width:0.28222224;stroke-linecap:round;stroke-linejoin:round;stroke-miterlimit:4;stroke-dasharray:none"
           id="24"
           d="m 79.656921,50.479406 -0.174992,1.90344"
           inkscape:connector-curvature="0"
           sodipodi:nodetypes="cc" />
        <g
           id="g12928">
          <path
             sodipodi:nodetypes="cc"
             inkscape:connector-curvature="0"
             id="path9741"
             d="m 78.444981,53.940276 c 0.616319,-0.355837 0.997854,-0.928878 1.036948,-1.55743"
             style="fill:none;stroke:#000000;stroke-width:0.28222224;stroke-linecap:round;stroke-linejoin:round;stroke-miterlimit:4;stroke-dasharray:none" />
          <path
             sodipodi:nodetypes="cc"
             inkscape:connector-curvature="0"
             id="path9743"
             d="m 74.491591,52.072427 c -0.107917,1.734922 2.252222,2.850012 3.95339,1.867849"
             style="fill:none;stroke:#000000;stroke-width:0.28222224;stroke-linecap:round;stroke-linejoin:round;stroke-miterlimit:4;stroke-dasharray:none" />
        </g>
        <path
           style="fill:none;stroke:#000000;stroke-width:0.28222224;stroke-linecap:round;stroke-linejoin:round;stroke-miterlimit:4;stroke-dasharray:none"
           d="m 79.798116,48.189983 a 4,3.31691 3.5595999 0 0 1.310453,-1.304149"
           id="path9747"
           inkscape:connector-curvature="0" />
        <path
           style="fill:none;stroke:#000000;stroke-width:0.28222224;stroke-linecap:round;stroke-linejoin:round;stroke-miterlimit:4;stroke-dasharray:none"
           d="m 77.862498,48.759954 a 4,3.31691 3.5595999 0 0 1.935618,-0.569971"
           id="path9749"
           inkscape:connector-curvature="0" />
        <path
           style="fill:none;stroke:#000000;stroke-width:0.28222224;stroke-linecap:round;stroke-linejoin:round;stroke-miterlimit:4;stroke-dasharray:none"
           d="M 81.108569,46.885834 A 4,3.31691 3.5595999 0 0 80.711005,43.575633"
           id="path9751"
           inkscape:connector-curvature="0" />
        <path
           style="fill:none;stroke:#000000;stroke-width:0.28222224;stroke-linecap:round;stroke-linejoin:round;stroke-miterlimit:4;stroke-dasharray:none"
           d="m 74.218854,47.323878 a 4,3.31691 3.5595999 0 0 3.643644,1.436076"
           id="path9753"
           inkscape:connector-curvature="0" />
        <path
           style="fill:none;stroke:#000000;stroke-width:0.28222224;stroke-linecap:round;stroke-linejoin:round;stroke-miterlimit:4;stroke-dasharray:none"
           d="m 80.711005,43.575633 a 4,3.31691 3.5595999 0 0 -3.64355,-1.436014"
           id="path9755"
           inkscape:connector-curvature="0" />
        <path
           style="fill:none;stroke:#000000;stroke-width:0.28222224;stroke-linecap:round;stroke-linejoin:round;stroke-miterlimit:4;stroke-dasharray:none"
           d="m 73.821358,44.013754 a 4,3.31691 3.5595999 0 0 0.397496,3.310124"
           id="path9757"
           inkscape:connector-curvature="0" />
        <path
           style="fill:none;stroke:#000000;stroke-width:0.28222224;stroke-linecap:round;stroke-linejoin:round;stroke-miterlimit:4;stroke-dasharray:none"
           d="m 77.067455,42.139619 a 4,3.31691 3.5595999 0 0 -3.246097,1.874135"
           id="path9759"
           inkscape:connector-curvature="0" />
        <path
           style="fill:none;stroke:#000000;stroke-width:0.28222224;stroke-linecap:round;stroke-linejoin:round;stroke-miterlimit:4;stroke-dasharray:none"
           d="m 81.108569,46.885834 -0.06457,0.118107 -0.06481,0.119514 -0.06504,0.121267 -0.06542,0.123099 -0.06592,0.125124 -0.06646,0.1274 -0.06717,0.129773 -0.06795,0.132418 -0.06885,0.135246 -0.06985,0.138249 -0.07095,0.141535 -0.07216,0.14501 -0.0735,0.148669 -0.07493,0.152613"
           id="path9761"
           inkscape:connector-curvature="0" />
        <path
           style="fill:none;stroke:#000000;stroke-width:0.28222224;stroke-linecap:round;stroke-linejoin:round;stroke-miterlimit:4;stroke-dasharray:none"
           d="m 80.150978,48.743858 -0.177367,-0.0069 -0.17418,-0.0057 -0.171294,-0.0044 -0.168656,-0.0032 -0.166259,-0.0019 -0.164152,-7.21e-4 -0.162286,5.12e-4 -0.160653,0.0018 -0.159308,0.0029 -0.158147,0.0042 -0.157276,0.0055 -0.156644,0.0067 -0.156188,0.0081 -0.15607,0.0093"
           id="path9763"
           inkscape:connector-curvature="0" />
        <path
           style="fill:none;stroke:#000000;stroke-width:0.28222224;stroke-linecap:round;stroke-linejoin:round;stroke-miterlimit:4;stroke-dasharray:none"
           d="m 82.04998,45.287607 -0.0726,0.116048 -0.07145,0.115039 -0.0702,0.114203 -0.06925,0.113652 -0.0683,0.113103 -0.06742,0.112825 -0.06675,0.112786 -0.06608,0.112745 -0.06566,0.113078 -0.06515,0.113361 -0.06488,0.114018 -0.06466,0.11481 -0.06452,0.115653 -0.06449,0.116906"
           id="path9765"
           inkscape:connector-curvature="0" />
        <path
           style="fill:none;stroke:#000000;stroke-width:0.28222224;stroke-linecap:round;stroke-linejoin:round;stroke-miterlimit:4;stroke-dasharray:none"
           d="m 80.711005,43.575633 0.09157,0.108211 0.09157,0.1096 0.09185,0.111285 0.09209,0.113108 0.09261,0.115003 0.09324,0.117295 0.09404,0.119487 0.09491,0.121988 0.09598,0.124837 0.09722,0.127584 0.09857,0.130729 0.100074,0.134134 0.101751,0.137438 0.103504,0.141275"
           id="path9767"
           inkscape:connector-curvature="0" />
        <path
           style="fill:none;stroke:#000000;stroke-width:0.28222224;stroke-linecap:round;stroke-linejoin:round;stroke-miterlimit:4;stroke-dasharray:none"
           d="m 75.557804,49.035867 -0.103557,-0.141245 -0.101699,-0.137468 -0.100117,-0.134109 -0.09855,-0.130739 -0.09717,-0.127609 -0.09603,-0.124807 -0.09489,-0.121998 -0.09401,-0.119507 -0.09328,-0.11727 -0.09259,-0.115013 -0.09214,-0.113083 -0.0918,-0.11131 -0.09156,-0.109605 -0.09155,-0.108226"
           id="path9769"
           inkscape:connector-curvature="0" />
        <path
           style="fill:none;stroke:#000000;stroke-width:0.28222224;stroke-linecap:round;stroke-linejoin:round;stroke-miterlimit:4;stroke-dasharray:none"
           d="m 77.862498,48.759954 -0.156194,0.0105 -0.156449,0.01192 -0.157054,0.01319 -0.157832,0.01457 -0.158858,0.01597 -0.160185,0.01731 -0.16171,0.01877 -0.163518,0.02016 -0.165541,0.02168 -0.167823,0.02322 -0.170403,0.02471 -0.173201,0.02633 -0.176273,0.02799 -0.179653,0.02959"
           id="path9771"
           inkscape:connector-curvature="0" />
        <path
           style="fill:none;stroke:#000000;stroke-width:0.28222224;stroke-linecap:round;stroke-linejoin:round;stroke-miterlimit:4;stroke-dasharray:none"
           d="m 79.355909,42.123538 0.105785,0.104624 0.103858,0.103889 0.102034,0.103327 0.100344,0.1028 0.09867,0.102499 0.0974,0.102305 0.0962,0.102422 0.095,0.102539 0.09417,0.102903 0.09339,0.103353 0.09271,0.103976 0.09213,0.104772 0.09187,0.105728 0.09154,0.106958"
           id="path9773"
           inkscape:connector-curvature="0" />
        <path
           style="fill:none;stroke:#000000;stroke-width:0.28222224;stroke-linecap:round;stroke-linejoin:round;stroke-miterlimit:4;stroke-dasharray:none"
           d="m 77.067455,42.139619 0.15607,-0.0093 0.156237,-0.008 0.156595,-0.0068 0.157276,-0.0055 0.158147,-0.0042 0.159308,-0.0029 0.160652,-0.0018 0.162296,-5.17e-4 0.164152,7.21e-4 0.166242,0.0019 0.16869,0.0032 0.171277,0.0045 0.174171,0.0057 0.177341,0.007"
           id="path9775"
           inkscape:connector-curvature="0" />
        <path
           style="fill:none;stroke:#000000;stroke-width:0.28222224;stroke-linecap:round;stroke-linejoin:round;stroke-miterlimit:4;stroke-dasharray:none"
           d="m 72.863741,45.871793 0.07493,-0.152613 0.0735,-0.148669 0.07216,-0.14501 0.07095,-0.141536 0.06986,-0.138253 0.06884,-0.135241 0.06795,-0.132418 0.06718,-0.129778 0.06646,-0.1274 0.06591,-0.125119 0.06542,-0.123104 0.06508,-0.121175 0.06476,-0.119606 0.06459,-0.118117"
           id="path9777"
           inkscape:connector-curvature="0" />
        <path
           style="fill:none;stroke:#000000;stroke-width:0.28222224;stroke-linecap:round;stroke-linejoin:round;stroke-miterlimit:4;stroke-dasharray:none"
           d="m 74.218854,47.323878 -0.09162,-0.106913 -0.09182,-0.105758 -0.09216,-0.104752 -0.09269,-0.103986 -0.09335,-0.103373 -0.09416,-0.102908 -0.09505,-0.102509 -0.09619,-0.102427 -0.09737,-0.102325 -0.09874,-0.102459 -0.100301,-0.102825 -0.102024,-0.103332 -0.103833,-0.103904 -0.105802,-0.104614"
           id="path9779"
           inkscape:connector-curvature="0" />
        <path
           style="fill:none;stroke:#000000;stroke-width:0.28222224;stroke-linecap:round;stroke-linejoin:round;stroke-miterlimit:4;stroke-dasharray:none"
           d="m 74.76276,42.415531 0.179663,-0.0296 0.176264,-0.02798 0.173201,-0.02633 0.170403,-0.02471 0.167823,-0.02322 0.165541,-0.02168 0.163526,-0.02016 0.161702,-0.01877 0.160184,-0.01731 0.158859,-0.01597 0.157832,-0.01457 0.157054,-0.0132 0.156499,-0.01183 0.156144,-0.01059"
           id="path9781"
           inkscape:connector-curvature="0" />
        <path
           style="fill:none;stroke:#000000;stroke-width:0.28222224;stroke-linecap:round;stroke-linejoin:round;stroke-miterlimit:4;stroke-dasharray:none"
           d="m 73.821358,44.013754 0.06451,-0.116804 0.0645,-0.11576 0.06463,-0.114795 0.06487,-0.114008 0.0652,-0.113391 0.06559,-0.113038 0.06612,-0.11277 0.06672,-0.112766 0.06745,-0.112845 0.0683,-0.113103 0.06921,-0.113627 0.07025,-0.114228 0.07142,-0.115019 0.07264,-0.116069"
           id="path9783"
           inkscape:connector-curvature="0" />
        <path
           style="fill:none;stroke:#000000;stroke-width:0.28222224;stroke-linecap:round;stroke-linejoin:round;stroke-miterlimit:4;stroke-dasharray:none"
           id="173"
           d="m 81.943585,46.998524 -1.89907,3.456174"
           inkscape:connector-curvature="0" />
        <path
           style="fill:none;stroke:#000000;stroke-width:0.28222224;stroke-linecap:round;stroke-linejoin:round;stroke-miterlimit:4;stroke-dasharray:none"
           id="174"
           d="M 81.943585,46.998524 82.04998,45.287607"
           inkscape:connector-curvature="0" />
        <path
           style="fill:none;stroke:#000000;stroke-width:0.28222224;stroke-linecap:round;stroke-linejoin:round;stroke-miterlimit:4;stroke-dasharray:none"
           id="175"
           d="m 80.044515,50.454698 0.106463,-1.71084"
           inkscape:connector-curvature="0" />
        <path
           style="fill:none;stroke:#000000;stroke-width:0.28222224;stroke-linecap:round;stroke-linejoin:round;stroke-miterlimit:4;stroke-dasharray:none"
           id="176"
           d="m 80.044515,50.454698 -4.593124,0.292096"
           inkscape:connector-curvature="0" />
        <path
           style="fill:none;stroke:#000000;stroke-width:0.28222224;stroke-linecap:round;stroke-linejoin:round;stroke-miterlimit:4;stroke-dasharray:none"
           id="177"
           d="m 75.451391,50.746794 0.106413,-1.710927"
           inkscape:connector-curvature="0" />
        <path
           style="fill:none;stroke:#000000;stroke-width:0.28222224;stroke-linecap:round;stroke-linejoin:round;stroke-miterlimit:4;stroke-dasharray:none"
           id="178"
           d="M 75.451391,50.746794 72.757278,47.582633"
           inkscape:connector-curvature="0" />
        <path
           style="fill:none;stroke:#000000;stroke-width:0.28222224;stroke-linecap:round;stroke-linejoin:round;stroke-miterlimit:4;stroke-dasharray:none"
           id="179"
           d="m 72.757278,47.582633 0.106463,-1.71084"
           inkscape:connector-curvature="0" />
      </g>
    </g>
  </g>
</svg>
