<?xml version="1.0" encoding="UTF-8" standalone="no"?>
<!-- Created with Inkscape (http://www.inkscape.org/) -->

<svg
   xmlns:dc="http://purl.org/dc/elements/1.1/"
   xmlns:cc="http://creativecommons.org/ns#"
   xmlns:rdf="http://www.w3.org/1999/02/22-rdf-syntax-ns#"
   xmlns:svg="http://www.w3.org/2000/svg"
   xmlns="http://www.w3.org/2000/svg"
   xmlns:xlink="http://www.w3.org/1999/xlink"
   xmlns:sodipodi="http://sodipodi.sourceforge.net/DTD/sodipodi-0.dtd"
   xmlns:inkscape="http://www.inkscape.org/namespaces/inkscape"
   width="48"
   height="48"
   viewBox="0 0 48.000001 48.000001"
   id="svg15825"
   version="1.1"
   inkscape:version="0.92.3 (2405546, 2018-03-11)"
   sodipodi:docname="Asm4_FSparams.svg">
  <defs
     id="defs15827">
    <linearGradient
       id="linearGradient3864-9">
      <stop
         style="stop-color:#204a87;stop-opacity:1"
         offset="0"
         id="stop3866-1" />
      <stop
         style="stop-color:#729fcf;stop-opacity:1"
         offset="1"
         id="stop3868-1" />
    </linearGradient>
    <linearGradient
       inkscape:collect="always"
       xlink:href="#linearGradient5889"
       id="linearGradient4170"
       x1="2.0761719"
       y1="22.674805"
       x2="43.273438"
       y2="22.674805"
       gradientUnits="userSpaceOnUse"
       gradientTransform="translate(-2.0513012,1009.0111)" />
    <linearGradient
       inkscape:collect="always"
       id="linearGradient5889">
      <stop
         style="stop-color:#113ba3;stop-opacity:1"
         offset="0"
         id="stop5891" />
      <stop
         style="stop-color:#5f88ca;stop-opacity:1"
         offset="1"
         id="stop5893" />
    </linearGradient>
  </defs>
  <sodipodi:namedview
     id="base"
     pagecolor="#ffffff"
     bordercolor="#666666"
     borderopacity="1.0"
     inkscape:pageopacity="0.0"
     inkscape:pageshadow="2"
     inkscape:zoom="5"
     inkscape:cx="5.7373637"
     inkscape:cy="32"
     inkscape:document-units="px"
     inkscape:current-layer="layer1"
     showgrid="false"
     units="px"
     inkscape:window-width="1187"
     inkscape:window-height="840"
     inkscape:window-x="191"
     inkscape:window-y="93"
     inkscape:window-maximized="0" />
  <metadata
     id="metadata15830">
    <rdf:RDF>
      <cc:Work
         rdf:about="">
        <dc:format>image/svg+xml</dc:format>
        <dc:type
           rdf:resource="http://purl.org/dc/dcmitype/StillImage" />
        <dc:title />
      </cc:Work>
    </rdf:RDF>
  </metadata>
  <g
     inkscape:label="Layer 1"
     inkscape:groupmode="layer"
     id="layer1"
     transform="translate(0,-1004.3622)">
    <g
       id="g957"
       transform="matrix(0.857375,0,0,0.857375,25.137384,125.00387)">
      <path
         sodipodi:nodetypes="cc"
         inkscape:connector-curvature="0"
         id="path5619"
         d="M 32.447346,1038.213 Z"
         style="fill:none;fill-opacity:1;stroke:#000000;stroke-width:0.1708577;stroke-linecap:butt;stroke-linejoin:miter" />
      <path
         style="opacity:1;fill:#ffaa00;fill-opacity:0.94117647;fill-rule:evenodd;stroke:none;stroke-width:3.54330707;stroke-linecap:round;stroke-linejoin:round;stroke-miterlimit:4;stroke-dasharray:none;stroke-dashoffset:0;stroke-opacity:1"
         d="m 0.48485976,1027.2512 16.39182024,-1.031 9.27838,11.2372 -0.309295,6.4949 -6.288679,11.5464 -0.721648,0.5155 -15.9794507,0.8247 -9.6907602,-11.0309 0.4123807,-6.1856 z"
         id="path15723"
         inkscape:connector-curvature="0" />
      <path
         sodipodi:nodetypes="cccccccccc"
         style="opacity:1;fill:#ffaa00;fill-opacity:0.94117647;fill-rule:evenodd;stroke:none;stroke-width:1;stroke-linecap:round;stroke-linejoin:round;stroke-miterlimit:4;stroke-dasharray:none;stroke-dashoffset:0;stroke-opacity:1"
         d="m 0.40548176,1054.7566 c -0.50725,0.6396 -0.9302,6.1317 -0.92353,6.9125 0.23933,2.9179 1.89682004,5.6673 4.51528054,6.6355 3.11831,1.231 6.8315897,2.02 9.4927997,-0.017 1.32369,-1.0906 3.41295,-3.7961 3.67422,-5.5185 0.11378,-0.5007 0.71397,-6.5711 -0.0736,-6.6168 -4.76785,0.2146 -9.5211997,0.6266 -14.2878702,0.8142 -0.70873,-0.7304 -1.23082,-1.6837 -2.06247004,-2.2672 -0.11162,0.019 -0.22324,0.038 -0.33485,0.057 z"
         id="path15725"
         inkscape:connector-curvature="0" />
      <g
         id="g13910"
         transform="matrix(3.5433071,0,0,3.543307,-264.46463,877.16053)">
        <path
           sodipodi:nodetypes="cc"
           inkscape:connector-curvature="0"
           d="m 74.686511,49.848483 -0.19492,2.223944"
           id="23"
           style="fill:none;stroke:#000000;stroke-width:0.28222224;stroke-linecap:round;stroke-linejoin:round;stroke-miterlimit:4;stroke-dasharray:none" />
        <path
           sodipodi:nodetypes="cc"
           inkscape:connector-curvature="0"
           d="m 79.656921,50.479406 -0.174992,1.90344"
           id="24"
           style="fill:none;stroke:#000000;stroke-width:0.28222224;stroke-linecap:round;stroke-linejoin:round;stroke-miterlimit:4;stroke-dasharray:none" />
        <g
           id="g12928">
          <path
             style="fill:none;stroke:#000000;stroke-width:0.28222224;stroke-linecap:round;stroke-linejoin:round;stroke-miterlimit:4;stroke-dasharray:none"
             d="m 78.444981,53.940276 c 0.616319,-0.355837 0.997854,-0.928878 1.036948,-1.55743"
             id="path9741"
             inkscape:connector-curvature="0"
             sodipodi:nodetypes="cc" />
          <path
             style="fill:none;stroke:#000000;stroke-width:0.28222224;stroke-linecap:round;stroke-linejoin:round;stroke-miterlimit:4;stroke-dasharray:none"
             d="m 74.491591,52.072427 c -0.107917,1.734922 2.252222,2.850012 3.95339,1.867849"
             id="path9743"
             inkscape:connector-curvature="0"
             sodipodi:nodetypes="cc" />
        </g>
        <path
           inkscape:connector-curvature="0"
           id="path9747"
           d="m 79.798116,48.189983 a 4,3.31691 3.5595999 0 0 1.310453,-1.304149"
           style="fill:none;stroke:#000000;stroke-width:0.28222224;stroke-linecap:round;stroke-linejoin:round;stroke-miterlimit:4;stroke-dasharray:none" />
        <path
           inkscape:connector-curvature="0"
           id="path9749"
           d="m 77.862498,48.759954 a 4,3.31691 3.5595999 0 0 1.935618,-0.569971"
           style="fill:none;stroke:#000000;stroke-width:0.28222224;stroke-linecap:round;stroke-linejoin:round;stroke-miterlimit:4;stroke-dasharray:none" />
        <path
           inkscape:connector-curvature="0"
           id="path9751"
           d="M 81.108569,46.885834 A 4,3.31691 3.5595999 0 0 80.711005,43.575633"
           style="fill:none;stroke:#000000;stroke-width:0.28222224;stroke-linecap:round;stroke-linejoin:round;stroke-miterlimit:4;stroke-dasharray:none" />
        <path
           inkscape:connector-curvature="0"
           id="path9753"
           d="m 74.218854,47.323878 a 4,3.31691 3.5595999 0 0 3.643644,1.436076"
           style="fill:none;stroke:#000000;stroke-width:0.28222224;stroke-linecap:round;stroke-linejoin:round;stroke-miterlimit:4;stroke-dasharray:none" />
        <path
           inkscape:connector-curvature="0"
           id="path9755"
           d="m 80.711005,43.575633 a 4,3.31691 3.5595999 0 0 -3.64355,-1.436014"
           style="fill:none;stroke:#000000;stroke-width:0.28222224;stroke-linecap:round;stroke-linejoin:round;stroke-miterlimit:4;stroke-dasharray:none" />
        <path
           inkscape:connector-curvature="0"
           id="path9757"
           d="m 73.821358,44.013754 a 4,3.31691 3.5595999 0 0 0.397496,3.310124"
           style="fill:none;stroke:#000000;stroke-width:0.28222224;stroke-linecap:round;stroke-linejoin:round;stroke-miterlimit:4;stroke-dasharray:none" />
        <path
           inkscape:connector-curvature="0"
           id="path9759"
           d="m 77.067455,42.139619 a 4,3.31691 3.5595999 0 0 -3.246097,1.874135"
           style="fill:none;stroke:#000000;stroke-width:0.28222224;stroke-linecap:round;stroke-linejoin:round;stroke-miterlimit:4;stroke-dasharray:none" />
        <path
           inkscape:connector-curvature="0"
           id="path9761"
           d="m 81.108569,46.885834 -0.06457,0.118107 -0.06481,0.119514 -0.06504,0.121267 -0.06542,0.123099 -0.06592,0.125124 -0.06646,0.1274 -0.06717,0.129773 -0.06795,0.132418 -0.06885,0.135246 -0.06985,0.138249 -0.07095,0.141535 -0.07216,0.14501 -0.0735,0.148669 -0.07493,0.152613"
           style="fill:none;stroke:#000000;stroke-width:0.28222224;stroke-linecap:round;stroke-linejoin:round;stroke-miterlimit:4;stroke-dasharray:none" />
        <path
           inkscape:connector-curvature="0"
           id="path9763"
           d="m 80.150978,48.743858 -0.177367,-0.0069 -0.17418,-0.0057 -0.171294,-0.0044 -0.168656,-0.0032 -0.166259,-0.0019 -0.164152,-7.21e-4 -0.162286,5.12e-4 -0.160653,0.0018 -0.159308,0.0029 -0.158147,0.0042 -0.157276,0.0055 -0.156644,0.0067 -0.156188,0.0081 -0.15607,0.0093"
           style="fill:none;stroke:#000000;stroke-width:0.28222224;stroke-linecap:round;stroke-linejoin:round;stroke-miterlimit:4;stroke-dasharray:none" />
        <path
           inkscape:connector-curvature="0"
           id="path9765"
           d="m 82.04998,45.287607 -0.0726,0.116048 -0.07145,0.115039 -0.0702,0.114203 -0.06925,0.113652 -0.0683,0.113103 -0.06742,0.112825 -0.06675,0.112786 -0.06608,0.112745 -0.06566,0.113078 -0.06515,0.113361 -0.06488,0.114018 -0.06466,0.11481 -0.06452,0.115653 -0.06449,0.116906"
           style="fill:none;stroke:#000000;stroke-width:0.28222224;stroke-linecap:round;stroke-linejoin:round;stroke-miterlimit:4;stroke-dasharray:none" />
        <path
           inkscape:connector-curvature="0"
           id="path9767"
           d="m 80.711005,43.575633 0.09157,0.108211 0.09157,0.1096 0.09185,0.111285 0.09209,0.113108 0.09261,0.115003 0.09324,0.117295 0.09404,0.119487 0.09491,0.121988 0.09598,0.124837 0.09722,0.127584 0.09857,0.130729 0.100074,0.134134 0.101751,0.137438 0.103504,0.141275"
           style="fill:none;stroke:#000000;stroke-width:0.28222224;stroke-linecap:round;stroke-linejoin:round;stroke-miterlimit:4;stroke-dasharray:none" />
        <path
           inkscape:connector-curvature="0"
           id="path9769"
           d="m 75.557804,49.035867 -0.103557,-0.141245 -0.101699,-0.137468 -0.100117,-0.134109 -0.09855,-0.130739 -0.09717,-0.127609 -0.09603,-0.124807 -0.09489,-0.121998 -0.09401,-0.119507 -0.09328,-0.11727 -0.09259,-0.115013 -0.09214,-0.113083 -0.0918,-0.11131 -0.09156,-0.109605 -0.09155,-0.108226"
           style="fill:none;stroke:#000000;stroke-width:0.28222224;stroke-linecap:round;stroke-linejoin:round;stroke-miterlimit:4;stroke-dasharray:none" />
        <path
           inkscape:connector-curvature="0"
           id="path9771"
           d="m 77.862498,48.759954 -0.156194,0.0105 -0.156449,0.01192 -0.157054,0.01319 -0.157832,0.01457 -0.158858,0.01597 -0.160185,0.01731 -0.16171,0.01877 -0.163518,0.02016 -0.165541,0.02168 -0.167823,0.02322 -0.170403,0.02471 -0.173201,0.02633 -0.176273,0.02799 -0.179653,0.02959"
           style="fill:none;stroke:#000000;stroke-width:0.28222224;stroke-linecap:round;stroke-linejoin:round;stroke-miterlimit:4;stroke-dasharray:none" />
        <path
           inkscape:connector-curvature="0"
           id="path9773"
           d="m 79.355909,42.123538 0.105785,0.104624 0.103858,0.103889 0.102034,0.103327 0.100344,0.1028 0.09867,0.102499 0.0974,0.102305 0.0962,0.102422 0.095,0.102539 0.09417,0.102903 0.09339,0.103353 0.09271,0.103976 0.09213,0.104772 0.09187,0.105728 0.09154,0.106958"
           style="fill:none;stroke:#000000;stroke-width:0.28222224;stroke-linecap:round;stroke-linejoin:round;stroke-miterlimit:4;stroke-dasharray:none" />
        <path
           inkscape:connector-curvature="0"
           id="path9775"
           d="m 77.067455,42.139619 0.15607,-0.0093 0.156237,-0.008 0.156595,-0.0068 0.157276,-0.0055 0.158147,-0.0042 0.159308,-0.0029 0.160652,-0.0018 0.162296,-5.17e-4 0.164152,7.21e-4 0.166242,0.0019 0.16869,0.0032 0.171277,0.0045 0.174171,0.0057 0.177341,0.007"
           style="fill:none;stroke:#000000;stroke-width:0.28222224;stroke-linecap:round;stroke-linejoin:round;stroke-miterlimit:4;stroke-dasharray:none" />
        <path
           inkscape:connector-curvature="0"
           id="path9777"
           d="m 72.863741,45.871793 0.07493,-0.152613 0.0735,-0.148669 0.07216,-0.14501 0.07095,-0.141536 0.06986,-0.138253 0.06884,-0.135241 0.06795,-0.132418 0.06718,-0.129778 0.06646,-0.1274 0.06591,-0.125119 0.06542,-0.123104 0.06508,-0.121175 0.06476,-0.119606 0.06459,-0.118117"
           style="fill:none;stroke:#000000;stroke-width:0.28222224;stroke-linecap:round;stroke-linejoin:round;stroke-miterlimit:4;stroke-dasharray:none" />
        <path
           inkscape:connector-curvature="0"
           id="path9779"
           d="m 74.218854,47.323878 -0.09162,-0.106913 -0.09182,-0.105758 -0.09216,-0.104752 -0.09269,-0.103986 -0.09335,-0.103373 -0.09416,-0.102908 -0.09505,-0.102509 -0.09619,-0.102427 -0.09737,-0.102325 -0.09874,-0.102459 -0.100301,-0.102825 -0.102024,-0.103332 -0.103833,-0.103904 -0.105802,-0.104614"
           style="fill:none;stroke:#000000;stroke-width:0.28222224;stroke-linecap:round;stroke-linejoin:round;stroke-miterlimit:4;stroke-dasharray:none" />
        <path
           inkscape:connector-curvature="0"
           id="path9781"
           d="m 74.76276,42.415531 0.179663,-0.0296 0.176264,-0.02798 0.173201,-0.02633 0.170403,-0.02471 0.167823,-0.02322 0.165541,-0.02168 0.163526,-0.02016 0.161702,-0.01877 0.160184,-0.01731 0.158859,-0.01597 0.157832,-0.01457 0.157054,-0.0132 0.156499,-0.01183 0.156144,-0.01059"
           style="fill:none;stroke:#000000;stroke-width:0.28222224;stroke-linecap:round;stroke-linejoin:round;stroke-miterlimit:4;stroke-dasharray:none" />
        <path
           inkscape:connector-curvature="0"
           id="path9783"
           d="m 73.821358,44.013754 0.06451,-0.116804 0.0645,-0.11576 0.06463,-0.114795 0.06487,-0.114008 0.0652,-0.113391 0.06559,-0.113038 0.06612,-0.11277 0.06672,-0.112766 0.06745,-0.112845 0.0683,-0.113103 0.06921,-0.113627 0.07025,-0.114228 0.07142,-0.115019 0.07264,-0.116069"
           style="fill:none;stroke:#000000;stroke-width:0.28222224;stroke-linecap:round;stroke-linejoin:round;stroke-miterlimit:4;stroke-dasharray:none" />
        <path
           inkscape:connector-curvature="0"
           d="m 81.943585,46.998524 -1.89907,3.456174"
           id="173"
           style="fill:none;stroke:#000000;stroke-width:0.28222224;stroke-linecap:round;stroke-linejoin:round;stroke-miterlimit:4;stroke-dasharray:none" />
        <path
           inkscape:connector-curvature="0"
           d="M 81.943585,46.998524 82.04998,45.287607"
           id="174"
           style="fill:none;stroke:#000000;stroke-width:0.28222224;stroke-linecap:round;stroke-linejoin:round;stroke-miterlimit:4;stroke-dasharray:none" />
        <path
           inkscape:connector-curvature="0"
           d="m 80.044515,50.454698 0.106463,-1.71084"
           id="175"
           style="fill:none;stroke:#000000;stroke-width:0.28222224;stroke-linecap:round;stroke-linejoin:round;stroke-miterlimit:4;stroke-dasharray:none" />
        <path
           inkscape:connector-curvature="0"
           d="m 80.044515,50.454698 -4.593124,0.292096"
           id="176"
           style="fill:none;stroke:#000000;stroke-width:0.28222224;stroke-linecap:round;stroke-linejoin:round;stroke-miterlimit:4;stroke-dasharray:none" />
        <path
           inkscape:connector-curvature="0"
           d="m 75.451391,50.746794 0.106413,-1.710927"
           id="177"
           style="fill:none;stroke:#000000;stroke-width:0.28222224;stroke-linecap:round;stroke-linejoin:round;stroke-miterlimit:4;stroke-dasharray:none" />
        <path
           inkscape:connector-curvature="0"
           d="M 75.451391,50.746794 72.757278,47.582633"
           id="178"
           style="fill:none;stroke:#000000;stroke-width:0.28222224;stroke-linecap:round;stroke-linejoin:round;stroke-miterlimit:4;stroke-dasharray:none" />
        <path
           inkscape:connector-curvature="0"
           d="m 72.757278,47.582633 0.106463,-1.71084"
           id="179"
           style="fill:none;stroke:#000000;stroke-width:0.28222224;stroke-linecap:round;stroke-linejoin:round;stroke-miterlimit:4;stroke-dasharray:none" />
      </g>
    </g>
    <path
       style="opacity:1;fill:url(#linearGradient4170);fill-opacity:1;fill-rule:evenodd;stroke:#000000;stroke-width:1;stroke-linecap:round;stroke-linejoin:round;stroke-miterlimit:4;stroke-dasharray:none;stroke-dashoffset:0;stroke-opacity:1"
       d="m 20.62448,1011.5873 c -0.336178,0 -0.672222,0.015 -1.007812,0.035 0,0 -0.714858,5.2287 -2.779297,5.7578 -2.046956,0.5247 -5.16211,-3.6796 -5.16211,-3.6796 -0.671789,0.3317 -1.3245,0.7008 -1.9550782,1.1054 0,0 1.9980282,4.8923 0.4726572,6.3848 -1.5099672,1.4774 -6.3085942,-0.6055 -6.3085942,-0.6055 -0.413841,0.6287 -0.792041,1.2801 -1.132813,1.9512 0,0 4.162875,3.227 3.589844,5.2754 -0.567878,2.0299 -5.75390601,2.623 -5.75390601,2.623 -0.03381,0.4159 -0.05465,0.8328 -0.0625,1.25 0.0033,0.3362 0.01501,0.6722 0.03516,1.0078 0,0 5.22869301,0.7149 5.75781201,2.7793 0.524639,2.047 -3.679687,5.1621 -3.679687,5.1621 0.33176,0.6718 0.700825,1.3245 1.105469,1.9551 0,0 4.892272,-1.998 6.3847662,-0.4726 1.47742,1.5099 -0.6054692,6.3086 -0.6054692,6.3086 0.6286662,0.4138 1.2800832,0.792 1.9511722,1.1328 0,0 3.227045,-4.1629 5.27539,-3.5899 2.029928,0.5679 2.623047,5.7539 2.623047,5.7539 0.416566,0.034 0.834087,0.055 1.251953,0.062 0.335528,0 0.670919,-0.015 1.00586,-0.035 0,0 0.714857,-5.2287 2.779297,-5.7578 2.046956,-0.5247 5.162109,3.6797 5.162109,3.6797 0.671789,-0.3318 1.3245,-0.7009 1.955078,-1.1055 0,0 -1.998027,-4.8923 -0.472656,-6.3848 1.509967,-1.4774 6.308593,0.6055 6.308593,0.6055 0.413841,-0.6287 0.792041,-1.2801 1.132813,-1.9512 0,0 -4.162874,-3.227 -3.589844,-5.2754 0.567878,-2.0299 5.753907,-2.623 5.753907,-2.623 0.03384,-0.4166 0.05469,-0.8341 0.0625,-1.252 -0.0033,-0.3355 -0.01504,-0.6709 -0.03516,-1.0058 0,0 -5.228693,-0.7149 -5.757812,-2.7793 -0.524638,-2.047 3.679687,-5.1621 3.679687,-5.1621 -0.331759,-0.6718 -0.700825,-1.3245 -1.105468,-1.9551 0,0 -4.892273,1.998 -6.384766,0.4726 -1.477421,-1.5099 0.605469,-6.3086 0.605469,-6.3086 -0.628666,-0.4138 -1.280083,-0.792 -1.951172,-1.1328 0,0 -3.227046,4.1629 -5.275391,3.5899 -2.029927,-0.5679 -2.623047,-5.7539 -2.623047,-5.7539 -0.415917,-0.034 -0.832786,-0.055 -1.250001,-0.062 z m 0,8.0254 a 12.07362,12.07362 0 0 1 12.072266,12.0722 12.07362,12.07362 0 0 1 -12.072266,12.0742 12.07362,12.07362 0 0 1 -12.0742192,-12.0742 12.07362,12.07362 0 0 1 12.0742192,-12.0722 z"
       id="path4151-3"
       inkscape:connector-curvature="0" />
  </g>
</svg>
