<?xml version="1.0" encoding="UTF-8" standalone="no"?>
<!-- Created with Inkscape (http://www.inkscape.org/) -->

<svg
   xmlns:dc="http://purl.org/dc/elements/1.1/"
   xmlns:cc="http://creativecommons.org/ns#"
   xmlns:rdf="http://www.w3.org/1999/02/22-rdf-syntax-ns#"
   xmlns:svg="http://www.w3.org/2000/svg"
   xmlns="http://www.w3.org/2000/svg"
   xmlns:sodipodi="http://sodipodi.sourceforge.net/DTD/sodipodi-0.dtd"
   xmlns:inkscape="http://www.inkscape.org/namespaces/inkscape"
   width="48px"
   height="48px"
   id="svg3049"
   version="1.1"
   inkscape:version="0.48.4 r9939"
   sodipodi:docname="New document 2">
  <defs
     id="defs3051" />
  <sodipodi:namedview
     id="base"
     pagecolor="#ffffff"
     bordercolor="#666666"
     borderopacity="1.0"
     inkscape:pageopacity="0.0"
     inkscape:pageshadow="2"
     inkscape:zoom="7"
     inkscape:cx="36.550067"
     inkscape:cy="28.558004"
     inkscape:current-layer="layer1"
     showgrid="true"
     inkscape:grid-bbox="true"
     inkscape:document-units="px"
     inkscape:window-width="1052"
     inkscape:window-height="622"
     inkscape:window-x="373"
     inkscape:window-y="269"
     inkscape:window-maximized="0" />
  <metadata
     id="metadata3054">
    <rdf:RDF>
      <cc:Work
         rdf:about="">
        <dc:format>image/svg+xml</dc:format>
        <dc:type
           rdf:resource="http://purl.org/dc/dcmitype/StillImage" />
        <dc:title></dc:title>
      </cc:Work>
    </rdf:RDF>
  </metadata>
  <g
     id="layer1"
     inkscape:label="Layer 1"
     inkscape:groupmode="layer">
    <g
       id="g3068">
      <path
         style="fill:#e9e925"
         d="m 25.030505,47.882787 c -0.305074,-0.127546 -1.867378,-0.96391 -3.471788,-1.858589 -1.604408,-0.894676 -3.024051,-1.626685 -3.154763,-1.626685 -0.130711,0 -0.914708,-0.407075 -1.742214,-0.90461 -0.827507,-0.497535 -2.177606,-1.254196 -3.000221,-1.681467 -0.822615,-0.427273 -1.539794,-0.843823 -1.593731,-0.925667 -0.05394,-0.08184 -0.828605,-0.499358 -1.721486,-0.927813 C 9.453421,39.529503 8.1836562,38.831584 7.5246024,38.407022 L 6.3263227,37.635091 5.2422806,34.61801 C 4.6460577,32.958616 4.0564992,31.320029 3.932151,30.976706 3.0531748,28.549872 1.7339007,24.384449 1.7339007,24.036038 c 0,-0.23178 -0.091901,-0.474684 -0.2042253,-0.539787 -0.2746805,-0.159206 -1.9014412,-4.882064 -2.2482714,-6.527247 -0.25603009,-1.214474 -0.24495549,-1.343845 0.14466295,-1.689915 0.73350117,-0.651516 6.56569945,-3.965427 6.97881055,-3.965427 0.2174359,0 1.3049209,0.340762 2.4166331,0.75725 1.1117124,0.416487 2.0812724,0.701002 2.1545784,0.632255 0.07331,-0.06875 0.196597,-0.96465 0.273979,-1.990896 0.07738,-1.0262454 0.202678,-1.9240273 0.278432,-1.995071 0.402056,-0.3770529 6.951059,-4.2699974 7.18331,-4.2699974 0.150593,0 0.410834,-0.1569727 0.578313,-0.348828 0.443243,-0.5077556 5.073128,-3.29446426 5.972576,-3.59486899 0.626934,-0.20938892 0.874402,-0.20248145 1.361241,0.037996 0.944338,0.46646092 5.950228,4.72096122 5.950228,5.05709042 0,0.1671664 0.298747,0.4212494 0.66388,0.5646288 0.948513,0.3724584 6.430073,4.9576002 6.576334,5.5008822 0.06994,0.259791 0.402734,0.546141 0.776871,0.668455 0.686003,0.224271 6.176034,4.761136 6.742461,5.571853 0.180278,0.258029 0.327779,0.60001 0.327779,0.759958 0,0.466954 -1.134671,2.918841 -3.053839,6.598966 -0.982236,1.883503 -2.382544,4.606629 -3.111796,6.051392 l -1.325912,2.626839 -2.300251,1.628857 c -4.460626,3.158666 -5.748533,4.242112 -5.629494,4.735796 0.418059,1.733783 0.545662,2.380368 0.550414,2.789014 0.0041,0.348833 -0.651535,0.956937 -2.601576,2.413122 -3.526615,2.633487 -4.00844,2.855267 -5.158534,2.374432 z"
         id="path3082"
         inkscape:connector-curvature="0" />
      <path
         style="fill:#a5a5a4"
         d="m 25.030505,47.882787 c -0.305074,-0.127546 -1.867378,-0.96391 -3.471788,-1.858589 -1.604408,-0.894676 -3.024051,-1.626685 -3.154763,-1.626685 -0.130711,0 -0.914708,-0.407075 -1.742214,-0.90461 -0.827507,-0.497535 -2.177606,-1.254196 -3.000221,-1.681467 -0.822615,-0.427273 -1.539794,-0.843823 -1.593731,-0.925667 -0.05394,-0.08184 -0.828605,-0.499358 -1.721486,-0.927813 C 9.453421,39.529503 8.1836562,38.831584 7.5246024,38.407022 L 6.3263227,37.635091 5.2422806,34.61801 C 4.6460577,32.958616 4.0564992,31.320029 3.932151,30.976706 3.0531748,28.549872 1.7339007,24.384449 1.7339007,24.036038 c 0,-0.23178 -0.091901,-0.474684 -0.2042253,-0.539787 -0.2746805,-0.159206 -1.9014412,-4.882064 -2.2482714,-6.527247 -0.25603009,-1.214474 -0.24495549,-1.343845 0.14466295,-1.689915 0.73350117,-0.651516 6.56569945,-3.965427 6.97881055,-3.965427 0.2174359,0 1.3049209,0.340762 2.4166331,0.75725 1.1117124,0.416487 2.0812724,0.701002 2.1545784,0.632255 0.07331,-0.06875 0.196597,-0.96465 0.273979,-1.990896 0.07738,-1.0262454 0.202678,-1.9240273 0.278432,-1.995071 0.402056,-0.3770529 6.951059,-4.2699974 7.18331,-4.2699974 0.150593,0 0.410834,-0.1569727 0.578313,-0.348828 0.443243,-0.5077556 5.073128,-3.29446426 5.972576,-3.59486899 0.626934,-0.20938892 0.874402,-0.20248145 1.361241,0.037996 0.944338,0.46646092 5.950228,4.72096122 5.950228,5.05709042 0,0.1671664 0.298747,0.4212494 0.66388,0.5646288 0.948513,0.3724584 6.430073,4.9576002 6.576334,5.5008822 0.06994,0.259791 0.402734,0.546141 0.776871,0.668455 0.686003,0.224271 6.176034,4.761136 6.742461,5.571853 0.180278,0.258029 0.327779,0.60001 0.327779,0.759958 0,0.466954 -1.134671,2.918841 -3.053839,6.598966 -0.982236,1.883503 -2.382544,4.606629 -3.111796,6.051392 l -1.325912,2.626839 -2.300251,1.628857 c -4.460626,3.158666 -5.748533,4.242112 -5.629494,4.735796 0.418059,1.733783 0.545662,2.380368 0.550414,2.789014 0.0041,0.348833 -0.651535,0.956937 -2.601576,2.413122 -3.526615,2.633487 -4.00844,2.855267 -5.158534,2.374432 z m 4.412271,-2.322339 c 1.308259,-0.962561 2.5104,-1.898982 2.671419,-2.080935 0.245378,-0.277273 0.196777,-0.692861 -0.300255,-2.567435 -1.011131,-3.81352 -1.016329,-3.8278 -1.368064,-3.758191 -0.180797,0.03578 -1.473217,0.854369 -2.872045,1.819084 -1.958978,1.351028 -2.543326,1.863567 -2.543326,2.230781 0,0.496655 1.416751,5.523487 1.661321,5.8946 0.07692,0.116713 0.192148,0.212205 0.256072,0.212205 0.06392,0 1.18662,-0.78755 2.494878,-1.750109 z M 10.83067,39.405913 c 0,-0.565862 -1.3707159,-4.684371 -1.6098982,-4.837162 -0.8415326,-0.537582 -3.3264922,-1.615337 -3.7244526,-1.615337 -0.3788746,0 -0.4360856,0.08608 -0.3111425,0.468168 0.2302947,0.704257 1.6079798,4.13797 1.6906579,4.213757 0.039637,0.03634 0.8162963,0.495901 1.7259085,1.021261 1.6408149,0.947675 2.2289269,1.145385 2.2289269,0.749313 z m 22.893265,-1.520109 c 0.417276,-0.308508 1.349972,-2.435496 1.067979,-2.435496 -0.197159,0 -2.682849,1.837253 -2.918304,2.157011 -0.08023,0.108961 -0.105192,0.323641 -0.05547,0.477071 0.338673,1.045003 0.204919,1.05894 1.905793,-0.198586 z M 25.307846,29.31253 c 2.177083,-1.514785 2.828911,-2.077179 2.829035,-2.440877 2.22e-4,-0.857512 -1.167559,-5.981456 -1.444152,-6.336196 -0.241985,-0.310353 -0.597689,-0.128964 -3.313063,1.689482 -1.673087,1.12044 -3.090526,2.155817 -3.149865,2.300834 -0.105779,0.258514 1.269103,5.373791 1.691934,6.294877 0.118203,0.257492 0.291938,0.466368 0.386076,0.464168 0.09414,-0.0022 1.444154,-0.88973 3.000035,-1.972288 z m 12.019248,-4.270844 c 1.412875,-1.046707 2.568864,-2.026646 2.568864,-2.177646 0,-0.295339 -5.592723,-4.956452 -6.066296,-5.055803 -0.396655,-0.08321 -5.692943,3.625474 -5.692943,3.986441 0,0.26455 1.991163,2.0502 4.977196,4.463488 0.601935,0.486481 1.218152,0.839985 1.369372,0.785565 0.151219,-0.05442 1.430933,-0.955341 2.843807,-2.002045 z M 7.5226197,15.507508 c 1.3923234,-0.897732 2.5592993,-1.765439 2.5932803,-1.928237 0.07567,-0.362508 -3.7311388,-1.742259 -4.3728065,-1.584894 -0.7467704,0.18314 -5.36085679,3.111187 -5.27653267,3.348428 0.0904106,0.254364 3.61838887,1.762767 4.17171737,1.783636 0.1940645,0.0073 1.4920182,-0.7212 2.8843415,-1.618933 z M 22.031831,11.834945 c 1.405211,-0.914925 2.554929,-1.774277 2.554929,-1.9096707 0,-0.3776311 -5.233559,-4.6459134 -5.69516,-4.6447455 -0.580387,0.00148 -5.491249,2.9572729 -5.572758,3.3541934 -0.09866,0.4804339 5.170135,5.0136048 5.728697,4.9288628 0.23615,-0.03583 1.579081,-0.813715 2.984292,-1.72864 z"
         id="path3080"
         inkscape:connector-curvature="0" />
      <path
         style="fill:#e32c2d"
         d="m 22.368036,46.135029 c -1.891462,-1.093646 -3.663668,-2.070121 -3.938235,-2.169942 -0.274567,-0.09982 -0.499213,-0.329994 -0.499213,-0.511491 0,-0.497394 -1.50813,-5.308928 -1.749399,-5.581277 -0.355733,-0.401561 -4.661524,-2.305218 -4.83855,-2.1392 -0.09161,0.08592 0.110651,1.144676 0.449478,2.352801 0.603092,2.150388 0.627393,2.682992 0.09984,2.188249 -0.144402,-0.135421 -0.442266,-0.246221 -0.661919,-0.246221 -0.250752,0 -0.399371,-0.154048 -0.399371,-0.41396 0,-0.71952 -1.3215217,-4.861019 -1.6098982,-5.045237 -0.8199116,-0.523772 -3.3213381,-1.615337 -3.7016947,-1.615337 -0.5028907,0 -0.9008348,-0.573035 -0.9008348,-1.297191 0,-0.270738 -0.094853,-0.581204 -0.2107848,-0.689927 -0.3326534,-0.311966 -2.2255491,-6.15992 -2.227792,-6.882592 -0.00111,-0.357919 -0.1465549,-0.763257 -0.3232089,-0.90075 -0.2445704,-0.190353 -2.78502496,-6.934732 -2.78502496,-7.393663 0,-0.05028 0.20071085,-0.192159 0.4460241,-0.315282 0.35947522,-0.180421 0.75771831,-0.0862 2.05231996,0.48558 0.8834627,0.390192 1.9816684,0.834488 2.4404573,0.987325 L 4.8443944,17.2248 7.4492556,15.552229 C 8.8819291,14.632315 10.081919,13.745472 10.1159,13.581466 10.158175,13.377427 9.5315359,13.05872 8.1312564,12.572085 7.0057218,12.18093 6.2175874,11.819394 6.379847,11.768671 c 0.1622593,-0.05072 1.2237784,0.259784 2.3589312,0.690015 1.1351525,0.430232 2.2199728,0.726078 2.4107118,0.657436 0.278758,-0.100317 0.346797,-0.490385 0.346797,-1.988178 0,-1.7846225 0.02579,-1.882454 0.61015,-2.3147917 1.056879,-0.7819272 6.117507,-3.7909711 6.874614,-4.0876379 0.398484,-0.1561431 0.724516,-0.3759094 0.724516,-0.4883695 0,-0.1803992 5.474345,-3.65049489 6.132709,-3.88742166 0.140951,-0.0507247 0.441196,0.0829626 0.667211,0.2970829 0.226014,0.21412029 1.634006,1.39764656 3.128871,2.63005836 1.494866,1.2324117 2.717937,2.3741718 2.717937,2.5372449 0,0.1630728 0.297032,0.4138065 0.660071,0.5571859 0.96834,0.3824387 6.102006,4.7250337 6.519137,5.5145717 0.216397,0.409591 0.524203,0.676242 0.780614,0.676242 0.41083,0 1.364323,0.716939 4.137948,3.111358 0.735327,0.634794 1.758714,1.50907 2.274192,1.942837 1.464664,1.232487 1.47203,1.221075 -2.540839,3.937245 -2.628527,1.779158 -2.572298,1.710733 -3.953824,4.811566 -0.512055,1.149308 -0.03977,0.999444 2.239764,-0.710714 1.256282,-0.942493 1.99774,-1.376097 2.058894,-1.204045 0.05256,0.147887 -0.186086,0.459579 -0.530332,0.692647 -1.282174,0.868089 -3.935511,2.896294 -4.473541,3.419564 -0.658859,0.640784 -1.892585,3.299577 -1.607683,3.464707 0.108822,0.06307 0.947158,-0.404994 1.86297,-1.04015 0.915809,-0.635156 1.766827,-1.154828 1.891149,-1.154828 0.124322,0 -0.265242,0.912927 -0.865699,2.028727 -1.057779,1.965615 -1.156195,2.073924 -3.163706,3.481619 -1.139581,0.799092 -2.40381,1.667064 -2.809402,1.928826 l -0.737435,0.475931 0.153864,-0.472304 c 0.08463,-0.259767 0.286575,-0.776611 0.448775,-1.148544 0.1622,-0.371934 0.209314,-0.676243 0.104697,-0.676243 -0.204342,0 -2.686085,1.828074 -2.928299,2.157011 -0.08023,0.108961 -0.105192,0.323641 -0.05547,0.477071 0.319021,0.984364 0.298361,0.964509 0.69358,0.666526 0.206827,-0.15594 0.08089,0.06754 -0.279866,0.496611 l -0.655912,0.78014 -0.368151,-1.368052 c -0.202481,-0.752429 -0.431713,-1.427666 -0.509403,-1.500524 -0.184723,-0.173234 -0.66485,0.110276 -3.393692,2.003935 -1.715622,1.190542 -2.274193,1.693512 -2.274193,2.047817 0,0.658338 1.498453,5.71554 1.768581,5.968868 0.247636,0.232236 -0.332052,0.970087 -0.749075,0.953454 -0.133622,-0.0053 -1.790512,-0.90449 -3.681975,-1.998136 z M 20.252964,31.091796 c 0.136009,-0.206381 -1.314304,-5.861274 -1.657466,-6.462602 -0.254433,-0.445847 -5.285977,-2.410949 -5.534214,-2.161422 -0.17222,0.173116 1.545496,6.189448 1.848189,6.473316 0.165947,0.155627 4.843148,2.311895 5.06034,2.332902 0.08432,0.0082 0.211739,-0.07383 0.283151,-0.182194 z m 5.054882,-1.779266 c 2.177083,-1.514785 2.828911,-2.077179 2.829035,-2.440877 2.22e-4,-0.857512 -1.167559,-5.981456 -1.444152,-6.336196 -0.241985,-0.310353 -0.597689,-0.128964 -3.313063,1.689482 -1.673087,1.12044 -3.090526,2.155817 -3.149865,2.300834 -0.105779,0.258514 1.269103,5.373791 1.691934,6.294877 0.118203,0.257492 0.291938,0.466368 0.386076,0.464168 0.09414,-0.0022 1.444154,-0.88973 3.000035,-1.972288 z m 12.019248,-4.270844 c 1.412875,-1.046707 2.568864,-2.026646 2.568864,-2.177646 0,-0.295339 -5.592723,-4.956452 -6.066296,-5.055803 -0.396655,-0.08321 -5.692943,3.625474 -5.692943,3.986441 0,0.26455 1.991163,2.0502 4.977196,4.463488 0.601935,0.486481 1.218152,0.839985 1.369372,0.785565 0.151219,-0.05442 1.430933,-0.955341 2.843807,-2.002045 z M 22.031831,11.834945 c 1.405211,-0.914925 2.554929,-1.774277 2.554929,-1.9096707 0,-0.3776311 -5.233559,-4.6459134 -5.69516,-4.6447455 -0.580387,0.00148 -5.491249,2.9572729 -5.572758,3.3541934 -0.09866,0.4804339 5.170135,5.0136048 5.728697,4.9288628 0.23615,-0.03583 1.579081,-0.813715 2.984292,-1.72864 z m 11.207954,26.449846 c 0,-0.04321 0.174725,-0.207065 0.388277,-0.36413 0.351903,-0.258818 0.35975,-0.251458 0.08377,0.07856 -0.289848,0.3466 -0.472047,0.456824 -0.472047,0.28557 z"
         id="path3078"
         inkscape:connector-curvature="0" />
      <path
         style="fill:#26b244"
         d="m 22.368036,46.135029 c -1.891462,-1.093646 -3.663668,-2.070121 -3.938235,-2.169942 -0.274567,-0.09982 -0.499213,-0.329994 -0.499213,-0.511491 0,-0.497394 -1.50813,-5.308928 -1.749399,-5.581277 -0.355733,-0.401561 -4.661524,-2.305218 -4.83855,-2.1392 -0.09161,0.08592 0.110651,1.144676 0.449478,2.352801 0.603092,2.150388 0.627393,2.682992 0.09984,2.188249 -0.144402,-0.135421 -0.442266,-0.246221 -0.661919,-0.246221 -0.250752,0 -0.399371,-0.154048 -0.399371,-0.41396 0,-0.71952 -1.3215217,-4.861019 -1.6098982,-5.045237 -0.8199116,-0.523772 -3.3213381,-1.615337 -3.7016947,-1.615337 -0.5028907,0 -0.9008348,-0.573035 -0.9008348,-1.297191 0,-0.270738 -0.094853,-0.581204 -0.2107848,-0.689927 -0.3326534,-0.311966 -2.2255491,-6.15992 -2.227792,-6.882592 -0.00111,-0.357919 -0.1465549,-0.763257 -0.3232089,-0.90075 -0.2445704,-0.190353 -2.78502496,-6.934732 -2.78502496,-7.393663 0,-0.05028 0.20071085,-0.192159 0.4460241,-0.315282 0.35947522,-0.180421 0.75771831,-0.0862 2.05231996,0.48558 0.8834627,0.390192 1.9816684,0.834488 2.4404573,0.987325 L 4.8443944,17.2248 7.4492556,15.552229 C 8.8819291,14.632315 10.081919,13.745472 10.1159,13.581466 10.158175,13.377427 9.5315359,13.05872 8.1312564,12.572085 7.0057218,12.18093 6.2175874,11.819394 6.379847,11.768671 c 0.1622593,-0.05072 1.2237784,0.259784 2.3589312,0.690015 1.1351525,0.430232 2.2199728,0.726078 2.4107118,0.657436 0.278758,-0.100317 0.346797,-0.490385 0.346797,-1.988178 0,-1.7846225 0.02579,-1.882454 0.61015,-2.3147917 1.056879,-0.7819272 6.117507,-3.7909711 6.874614,-4.0876379 0.398484,-0.1561431 0.724516,-0.3759094 0.724516,-0.4883695 0,-0.1803992 5.474345,-3.65049489 6.132709,-3.88742166 0.140951,-0.0507247 0.441196,0.0829626 0.667211,0.2970829 0.226014,0.21412029 1.634006,1.39764656 3.128871,2.63005836 1.494866,1.2324117 2.717937,2.3741718 2.717937,2.5372449 0,0.1630728 0.297032,0.4138065 0.660071,0.5571859 0.96834,0.3824387 6.102006,4.7250337 6.519137,5.5145717 0.216397,0.409591 0.524203,0.676242 0.780614,0.676242 0.41083,0 1.364323,0.716939 4.137948,3.111358 0.735327,0.634794 1.758714,1.50907 2.274192,1.942837 1.464664,1.232487 1.47203,1.221075 -2.540839,3.937245 -2.628527,1.779158 -2.572298,1.710733 -3.953824,4.811566 -0.512055,1.149308 -0.03977,0.999444 2.239764,-0.710714 1.256282,-0.942493 1.99774,-1.376097 2.058894,-1.204045 0.05256,0.147887 -0.186086,0.459579 -0.530332,0.692647 -1.282174,0.868089 -3.935511,2.896294 -4.473541,3.419564 -0.658859,0.640784 -1.892585,3.299577 -1.607683,3.464707 0.108822,0.06307 0.947158,-0.404994 1.86297,-1.04015 0.915809,-0.635156 1.766827,-1.154828 1.891149,-1.154828 0.124322,0 -0.265242,0.912927 -0.865699,2.028727 -1.057779,1.965615 -1.156195,2.073924 -3.163706,3.481619 -1.139581,0.799092 -2.40381,1.667064 -2.809402,1.928826 l -0.737435,0.475931 0.153864,-0.472304 c 0.08463,-0.259767 0.286575,-0.776611 0.448775,-1.148544 0.1622,-0.371934 0.209314,-0.676243 0.104697,-0.676243 -0.204342,0 -2.686085,1.828074 -2.928299,2.157011 -0.08023,0.108961 -0.105192,0.323641 -0.05547,0.477071 0.319021,0.984364 0.298361,0.964509 0.69358,0.666526 0.206827,-0.15594 0.08089,0.06754 -0.279866,0.496611 l -0.655912,0.78014 -0.368151,-1.368052 c -0.202481,-0.752429 -0.431713,-1.427666 -0.509403,-1.500524 -0.184723,-0.173234 -0.66485,0.110276 -3.393692,2.003935 -1.715622,1.190542 -2.274193,1.693512 -2.274193,2.047817 0,0.658338 1.498453,5.71554 1.768581,5.968868 0.247636,0.232236 -0.332052,0.970087 -0.749075,0.953454 -0.133622,-0.0053 -1.790512,-0.90449 -3.681975,-1.998136 z M 20.252964,31.091796 c 0.136009,-0.206381 -1.314304,-5.861274 -1.657466,-6.462602 -0.254433,-0.445847 -5.285977,-2.410949 -5.534214,-2.161422 -0.17222,0.173116 1.545496,6.189448 1.848189,6.473316 0.165947,0.155627 4.843148,2.311895 5.06034,2.332902 0.08432,0.0082 0.211739,-0.07383 0.283151,-0.182194 z m 5.054882,-1.779266 c 2.177083,-1.514785 2.828911,-2.077179 2.829035,-2.440877 2.22e-4,-0.857512 -1.167559,-5.981456 -1.444152,-6.336196 -0.241985,-0.310353 -0.597689,-0.128964 -3.313063,1.689482 -1.673087,1.12044 -3.090526,2.155817 -3.149865,2.300834 -0.105779,0.258514 1.269103,5.373791 1.691934,6.294877 0.118203,0.257492 0.291938,0.466368 0.386076,0.464168 0.09414,-0.0022 1.444154,-0.88973 3.000035,-1.972288 z m 12.019248,-4.270844 c 1.412875,-1.046707 2.568864,-2.026646 2.568864,-2.177646 0,-0.295339 -5.592723,-4.956452 -6.066296,-5.055803 -0.396655,-0.08321 -5.692943,3.625474 -5.692943,3.986441 0,0.26455 1.991163,2.0502 4.977196,4.463488 0.601935,0.486481 1.218152,0.839985 1.369372,0.785565 0.151219,-0.05442 1.430933,-0.955341 2.843807,-2.002045 z m -22.413434,-7.176369 2.640819,-1.75354 -0.976776,-0.382856 c -0.537227,-0.21057 -1.83934,-0.65335 -2.893585,-0.983954 l -1.916809,-0.6011 -1.522213,0.998281 c -0.8372178,0.549055 -1.9945233,1.293353 -2.5717905,1.653997 -0.5772672,0.360644 -1.0183514,0.749032 -0.9801871,0.863086 0.099477,0.297287 4.3632816,1.96032 5.0250416,1.959943 0.338504,-1.93e-4 1.583893,-0.683727 3.1955,-1.753857 z m 21.765148,-4.633939 c 0.976238,-0.667619 1.774979,-1.356773 1.774979,-1.531453 0,-0.41349 -4.762256,-4.3326008 -5.269574,-4.3366098 -0.381994,-0.00302 -4.4644,2.5301899 -4.732049,2.9363218 -0.184764,0.280364 0.285286,0.742629 2.96357,2.914487 2.638152,2.139313 2.162335,2.137753 5.263074,0.01725 z M 22.031831,11.834945 c 1.405211,-0.914925 2.554929,-1.774277 2.554929,-1.9096707 0,-0.3776311 -5.233559,-4.6459134 -5.69516,-4.6447455 -0.580387,0.00148 -5.491249,2.9572729 -5.572758,3.3541934 -0.09866,0.4804339 5.170135,5.0136048 5.728697,4.9288628 0.23615,-0.03583 1.579081,-0.813715 2.984292,-1.72864 z m 11.207954,26.449846 c 0,-0.04321 0.174725,-0.207065 0.388277,-0.36413 0.351903,-0.258818 0.35975,-0.251458 0.08377,0.07856 -0.289848,0.3466 -0.472047,0.456824 -0.472047,0.28557 z"
         id="path3076"
         inkscape:connector-curvature="0" />
      <path
         style="fill:#2847ad"
         d="m 22.368036,46.135029 c -1.891462,-1.093646 -3.663668,-2.070121 -3.938235,-2.169942 -0.274567,-0.09982 -0.499213,-0.329994 -0.499213,-0.511491 0,-0.497394 -1.50813,-5.308928 -1.749399,-5.581277 -0.355733,-0.401561 -4.661524,-2.305218 -4.83855,-2.1392 -0.09161,0.08592 0.110651,1.144676 0.449478,2.352801 0.338827,1.208122 0.576848,2.233351 0.528935,2.278285 -0.183924,0.172487 -1.490382,-0.589704 -1.490382,-0.869494 0,-0.631194 -1.3491801,-4.759411 -1.6098982,-4.92596 -0.8199116,-0.523772 -3.3213381,-1.615337 -3.7016947,-1.615337 -0.5028907,0 -0.9008348,-0.573035 -0.9008348,-1.297191 0,-0.270738 -0.094853,-0.581204 -0.2107848,-0.689927 C 4.291526,30.857575 3.7433006,29.410937 3.1891791,27.751544 2.2040151,24.801339 1.949111,23.381985 2.4044429,23.381985 c 0.1247387,0 1.023322,0.375579 1.9968518,0.834621 1.380153,0.650773 1.7700545,0.762553 1.7700545,0.507454 0,-0.526776 -1.5165235,-5.315549 -1.776309,-5.609105 -0.2751687,-0.310939 -3.80291983,-1.767131 -4.28102726,-1.767131 -0.41650333,0 -0.74730991,-0.381555 -0.93328515,-1.076459 -0.11631796,-0.434627 -0.0479832,-0.604269 0.3172507,-0.78758 0.38461632,-0.19304 0.74460976,-0.110364 2.07179721,0.475804 0.8834627,0.390192 1.979982,0.833917 2.4367097,0.986055 l 0.8304139,0.276614 2.5874902,-1.650507 c 1.4231197,-0.907779 2.6321215,-1.810563 2.6866705,-2.006186 0.05525,-0.198147 0.359411,-0.383935 0.686736,-0.419474 0.581249,-0.06311 0.588251,-0.08385 0.652408,-1.932423 0.07193,-2.0727059 0.35599,-2.5835143 1.676783,-3.0153118 0.544232,-0.1779219 0.631676,-0.1715931 0.416556,0.030149 -0.149752,0.1404391 -0.272276,0.3677817 -0.272276,0.5052062 0,0.1374245 1.203054,1.2950219 2.673455,2.5724389 1.820185,1.581294 2.810491,2.301785 3.102817,2.257435 0.597599,-0.09066 5.539221,-3.336456 5.539221,-3.6383107 0,-0.3784501 -5.234285,-4.6460917 -5.69516,-4.643404 -0.223482,0.0013 -1.429718,0.6061255 -2.680524,1.3440498 -1.250805,0.737924 -2.270584,1.2752507 -2.266173,1.194059 0.01105,-0.2034131 4.397465,-2.8850743 5.150515,-3.148798 0.335582,-0.1175232 0.610149,-0.3092653 0.610149,-0.4260938 0,-0.1859291 5.457354,-3.65232329 6.132709,-3.89536406 0.140951,-0.0507247 0.441196,0.0829626 0.667211,0.2970829 0.226014,0.21412029 1.634006,1.39764656 3.128871,2.63005836 1.494866,1.2324117 2.717937,2.3741718 2.717937,2.5372449 0,0.1630728 0.297032,0.4138065 0.660071,0.5571859 0.9428,0.3723521 6.123781,4.7257137 6.450295,5.4199127 0.150449,0.319871 0.584055,0.707937 0.96357,0.862369 0.379515,0.154433 1.950647,1.34404 3.491406,2.643573 1.54076,1.299532 3.013438,2.525728 3.272619,2.72488 0.965449,0.741841 0.762537,0.980161 -3.006838,3.531519 -2.628527,1.779158 -2.572298,1.710733 -3.953824,4.811566 -0.512055,1.149308 -0.03977,0.999444 2.239764,-0.710714 1.256282,-0.942493 1.99774,-1.376097 2.058894,-1.204045 0.05256,0.147887 -0.186086,0.459579 -0.530332,0.692647 -1.282174,0.868089 -3.935511,2.896294 -4.473541,3.419564 -0.658859,0.640784 -1.892585,3.299577 -1.607683,3.464707 0.108822,0.06307 0.947158,-0.404994 1.86297,-1.04015 0.915809,-0.635156 1.766827,-1.154828 1.891149,-1.154828 0.124322,0 -0.265242,0.912927 -0.865699,2.028727 -1.056661,1.963541 -1.158279,2.075526 -3.162554,3.485248 -2.057457,1.447127 -3.208384,2.184783 -3.408808,2.184783 -0.05757,0 0.08501,-0.468168 0.316853,-1.040373 0.231839,-0.572205 0.340428,-1.040373 0.241307,-1.040373 -0.194152,0 -2.680332,1.834348 -2.913385,2.149548 -0.07753,0.104852 -0.04828,0.505438 0.065,0.890186 0.143698,0.488066 0.124036,0.841992 -0.06504,1.170744 -0.250585,0.435698 -0.299927,0.364199 -0.654925,-0.949013 -0.211158,-0.781116 -0.447488,-1.479824 -0.525178,-1.552682 -0.184723,-0.173234 -0.66485,0.110276 -3.393692,2.003935 -1.738646,1.20652 -2.274193,1.69098 -2.274193,2.057256 0,0.503933 1.177222,4.726725 1.6041,5.754045 0.212552,0.511522 0.188181,0.64206 -0.165095,0.884317 -0.22795,0.156316 -0.470254,0.27985 -0.538453,0.274521 -0.0682,-0.0053 -1.671558,-0.90449 -3.563021,-1.998136 z m 5.240301,-8.505005 c 1.398819,-0.975534 2.598854,-1.90945 2.666744,-2.075366 0.06789,-0.165917 -0.212738,-1.637443 -0.623619,-3.270058 -0.560765,-2.228183 -0.838147,-2.984844 -1.112355,-3.034368 -0.411864,-0.07438 -5.603337,3.308119 -5.79456,3.775446 -0.09559,0.233614 0.997736,4.649203 1.514843,6.117953 0.18537,0.526512 0.86236,0.220536 3.348947,-1.513607 z m 6.488408,-2.820381 c 1.360917,-1.015837 1.838983,-1.531354 2.428006,-2.618211 0.403388,-0.744326 0.700819,-1.445077 0.66096,-1.557221 -0.113635,-0.319704 -4.24637,2.930307 -4.529659,3.562155 -0.355087,0.791986 -0.590684,1.878166 -0.407382,1.878166 0.08443,0 0.91606,-0.5692 1.848075,-1.264889 z M 20.252964,31.091796 c 0.136009,-0.206381 -1.314304,-5.861274 -1.657466,-6.462602 -0.254433,-0.445847 -5.285977,-2.410949 -5.534214,-2.161422 -0.17222,0.173116 1.545496,6.189448 1.848189,6.473316 0.165947,0.155627 4.843148,2.311895 5.06034,2.332902 0.08432,0.0082 0.211739,-0.07383 0.283151,-0.182194 z m 5.054882,-1.779266 c 2.177083,-1.514785 2.828911,-2.077179 2.829035,-2.440877 2.22e-4,-0.857512 -1.167559,-5.981456 -1.444152,-6.336196 -0.241985,-0.310353 -0.597689,-0.128964 -3.313063,1.689482 -1.673087,1.12044 -3.090526,2.155817 -3.149865,2.300834 -0.105779,0.258514 1.269103,5.373791 1.691934,6.294877 0.118203,0.257492 0.291938,0.466368 0.386076,0.464168 0.09414,-0.0022 1.444154,-0.88973 3.000035,-1.972288 z m 12.019248,-4.270844 c 1.412875,-1.046707 2.568864,-2.026646 2.568864,-2.177646 0,-0.295339 -5.592723,-4.956452 -6.066296,-5.055803 -0.396655,-0.08321 -5.692943,3.625474 -5.692943,3.986441 0,0.26455 1.991163,2.0502 4.977196,4.463488 0.601935,0.486481 1.218152,0.839985 1.369372,0.785565 0.151219,-0.05442 1.430933,-0.955341 2.843807,-2.002045 z m 6.950844,-4.875429 c 1.395016,-0.983342 2.274193,-1.746506 2.274193,-1.974101 0,-0.332203 -4.766062,-4.591929 -5.666494,-5.0645 -0.250538,-0.131489 -0.625997,-0.01831 -1.282134,0.386497 -1.633192,1.007604 -4.366866,3.013849 -4.366866,3.204848 0,0.314778 6.236175,5.242472 6.5094,5.143591 0.141741,-0.05129 1.281095,-0.814646 2.531901,-1.696335 z m -29.364278,-2.30094 2.640819,-1.75354 -0.976776,-0.382856 c -0.537227,-0.21057 -1.83934,-0.65335 -2.893585,-0.983954 l -1.916809,-0.6011 -1.522213,0.998281 c -0.8372178,0.549055 -1.9945233,1.293353 -2.5717905,1.653997 -0.5772672,0.360644 -1.0183514,0.749032 -0.9801871,0.863086 0.099477,0.297287 4.3632816,1.96032 5.0250416,1.959943 0.338504,-1.93e-4 1.583893,-0.683727 3.1955,-1.753857 z m 21.765148,-4.633939 c 0.976238,-0.667619 1.774979,-1.356773 1.774979,-1.531453 0,-0.41349 -4.762256,-4.3326008 -5.269574,-4.3366098 -0.381994,-0.00302 -4.4644,2.5301899 -4.732049,2.9363218 -0.184764,0.280364 0.285286,0.742629 2.96357,2.914487 2.638152,2.139313 2.162335,2.137753 5.263074,0.01725 z M 8.1298608,12.59435 C 6.5973421,12.022517 6.0904457,11.729692 6.6335834,11.729975 c 0.3741335,1.96e-4 3.0877246,1.180893 3.0877246,1.343485 0,0.06208 -0.024961,0.103973 -0.055468,0.09309 -0.030507,-0.01088 -0.721698,-0.268371 -1.5359791,-0.572205 z"
         id="path3074"
         inkscape:connector-curvature="0" />
      <path
         style="fill:#ac2525"
         d="m 25.301747,47.818945 c -0.299661,-0.196838 -0.494499,-0.543763 -0.496646,-0.884316 -0.002,-0.308225 -0.329044,-1.730827 -0.726894,-3.161339 L 23.354845,41.172358 20.84501,39.959612 c -1.38041,-0.66701 -2.57247,-1.154006 -2.649023,-1.082214 -0.07655,0.07179 0.187787,1.306421 0.587423,2.743621 0.399635,1.4372 0.695726,2.636529 0.657979,2.665179 -0.232746,0.176644 -1.510801,-0.572076 -1.510801,-0.885073 0,-0.795818 -1.538122,-5.322833 -1.92267,-5.658817 -0.664153,-0.580281 -4.500181,-2.179481 -4.712668,-1.964665 -0.108209,0.109397 0.08579,1.09328 0.448306,2.273597 0.351486,1.14441 0.614365,2.136151 0.584175,2.203869 -0.109719,0.246113 -1.497061,-0.444986 -1.497061,-0.745753 0,-0.642004 -1.345708,-4.771838 -1.6098982,-4.940605 -0.8199116,-0.523772 -3.3213381,-1.615337 -3.7016947,-1.615337 -0.4864761,0 -0.9008348,-0.567958 -0.9008348,-1.234769 0,-0.580143 0.1734381,-0.551855 2.1012547,0.342733 1.0433374,0.484152 1.7380721,0.697765 1.8609874,0.572205 C 8.7935605,32.415922 7.400956,27.419158 6.9990077,26.95913 6.7389375,26.661481 3.7329622,25.285944 2.8432629,25.057458 2.3987423,24.943298 2.2749058,24.762778 2.2197204,24.148496 c -0.04052,-0.451032 0.029995,-0.766511 0.1713292,-0.766511 0.132105,0 1.0367153,0.375579 2.0102451,0.834621 1.380153,0.650773 1.7700545,0.762553 1.7700545,0.507454 0,-0.526776 -1.5165235,-5.315549 -1.776309,-5.609105 -0.2751687,-0.310939 -3.80291983,-1.767131 -4.28102726,-1.767131 -0.41650333,0 -0.74730991,-0.381555 -0.93328515,-1.076459 -0.11631796,-0.434627 -0.0479832,-0.604269 0.3172507,-0.78758 0.38461632,-0.19304 0.74460976,-0.110364 2.07179721,0.475804 0.8834627,0.390192 1.979982,0.833917 2.4367097,0.986055 l 0.8304139,0.276614 2.5874902,-1.650507 c 1.4231197,-0.907779 2.6321215,-1.810563 2.6866705,-2.006186 0.05525,-0.198147 0.359411,-0.383935 0.686736,-0.419474 0.578348,-0.0628 0.589294,-0.09363 0.698491,-1.967728 0.122509,-2.1025401 0.377803,-2.5704059 1.625052,-2.9781602 0.548694,-0.1793808 0.637324,-0.1734397 0.422204,0.028302 -0.149752,0.1404391 -0.272276,0.3677817 -0.272276,0.5052062 0,0.1374245 1.203054,1.2950219 2.673455,2.5724389 1.820185,1.581294 2.810491,2.301785 3.102817,2.257435 0.597599,-0.09066 5.539221,-3.336456 5.539221,-3.6383107 0,-0.3784501 -5.234285,-4.6460917 -5.69516,-4.643404 -0.223482,0.0013 -1.429718,0.6061255 -2.680524,1.3440498 -1.250805,0.737924 -2.270584,1.2752507 -2.266173,1.194059 0.01105,-0.2034131 4.397465,-2.8850743 5.150515,-3.148798 0.335582,-0.1175232 0.610149,-0.2992617 0.610149,-0.4038635 0,-0.1046018 1.123229,-0.8479046 2.496065,-1.6517843 1.372836,-0.8038795 2.735986,-1.65694911 3.029226,-1.89571024 0.682566,-0.55575931 0.807718,-0.54660497 1.409689,0.10311379 0.273762,0.29547375 1.623365,1.43511535 2.999123,2.53253695 1.375757,1.0974217 2.556665,2.2018982 2.624238,2.4543921 0.07321,0.2735404 0.382211,0.5324421 0.764568,0.6405997 0.838471,0.2371791 6.080181,4.5881004 6.434185,5.3407424 0.150449,0.319871 0.584055,0.708304 0.96357,0.863185 0.379515,0.154882 2.027541,1.414714 3.662281,2.799629 1.634741,1.384914 3.050771,2.518025 3.14673,2.518025 0.09596,0 0.239405,0.191852 0.318762,0.426337 0.150603,0.444998 -0.393932,1.446334 -0.786529,1.446334 -0.119993,0 -1.30464,0.758472 -2.632547,1.685491 l -2.414378,1.685494 -0.917329,1.888669 c -0.504531,1.038769 -0.835046,1.965836 -0.734478,2.06015 0.10057,0.09432 1.125104,-0.53405 2.276742,-1.396367 1.255194,-0.939854 2.130268,-1.465498 2.184715,-1.312318 0.04995,0.140542 -0.128439,0.401178 -0.396428,0.579192 -0.267988,0.178016 -1.507359,1.08699 -2.754158,2.019946 -2.170884,1.624428 -2.29665,1.763107 -2.969083,3.273912 -0.386198,0.867697 -0.610782,1.630605 -0.499076,1.695349 0.111704,0.06474 0.962521,-0.408977 1.8907,-1.052711 0.928181,-0.643735 1.747624,-1.114137 1.820984,-1.045338 0.07336,0.0688 -0.308323,0.970196 -0.848185,2.003105 -0.943111,1.804439 -1.064215,1.936697 -3.091024,3.375759 -2.069389,1.469292 -3.242247,2.226003 -3.450176,2.226003 -0.05757,0 0.08501,-0.468168 0.316853,-1.040373 0.231839,-0.572205 0.340428,-1.040373 0.241307,-1.040373 -0.194152,0 -2.680332,1.834348 -2.913385,2.149548 -0.07753,0.104852 -0.04828,0.505438 0.065,0.890186 0.143698,0.488066 0.124036,0.841992 -0.06504,1.170744 -0.250585,0.435698 -0.299927,0.364199 -0.654925,-0.949013 -0.211158,-0.781116 -0.447488,-1.479824 -0.525178,-1.552682 -0.184723,-0.173234 -0.66485,0.110276 -3.393692,2.003935 -1.738646,1.20652 -2.274193,1.69098 -2.274193,2.057256 0,0.503933 1.177222,4.726725 1.6041,5.754045 0.212552,0.511522 0.188181,0.64206 -0.165095,0.884317 -0.519872,0.3565 -0.567044,0.354896 -1.167763,-0.0397 z m 2.30659,-10.188921 c 1.398819,-0.975534 2.598854,-1.90945 2.666744,-2.075366 0.06789,-0.165917 -0.212738,-1.637443 -0.623619,-3.270058 -0.560765,-2.228183 -0.838147,-2.984844 -1.112355,-3.034368 -0.411864,-0.07438 -5.603337,3.308119 -5.79456,3.775446 -0.09559,0.233614 0.997736,4.649203 1.514843,6.117953 0.18537,0.526512 0.86236,0.220536 3.348947,-1.513607 z m 6.488408,-2.820381 c 1.360917,-1.015837 1.838983,-1.531354 2.428006,-2.618211 0.403388,-0.744326 0.700819,-1.445077 0.66096,-1.557221 -0.113635,-0.319704 -4.24637,2.930307 -4.529659,3.562155 -0.355087,0.791986 -0.590684,1.878166 -0.407382,1.878166 0.08443,0 0.91606,-0.5692 1.848075,-1.264889 z m 1.842103,-4.391122 c 2.130001,-1.619197 2.281771,-1.788384 3.09841,-3.453948 0.472285,-0.963244 0.8587,-1.788846 0.8587,-1.834672 0,-0.306207 -0.747899,0.159243 -3.084125,1.919385 l -2.658178,2.002707 -0.456935,1.410806 c -0.251315,0.775943 -0.456935,1.466497 -0.456935,1.534562 0,0.355687 0.669192,-0.03576 2.699063,-1.57884 z M 20.25184,31.093502 c 0.233888,-0.354904 -1.455961,-6.334619 -1.8923,-6.696113 -0.646574,-0.535667 -5.088323,-2.13896 -5.321065,-1.92069 -0.124492,0.116748 0.0043,0.83904 0.329752,1.848908 0.293731,0.911521 0.748788,2.345706 1.011238,3.18708 l 0.477183,1.52977 2.479927,1.115829 c 2.694575,1.212407 2.725957,1.222473 2.915265,0.935216 z m 5.056006,-1.780972 c 2.177083,-1.514785 2.828911,-2.077179 2.829035,-2.440877 2.22e-4,-0.857512 -1.167559,-5.981456 -1.444152,-6.336196 -0.241985,-0.310353 -0.597689,-0.128964 -3.313063,1.689482 -1.673087,1.12044 -3.090526,2.155817 -3.149865,2.300834 -0.105779,0.258514 1.269103,5.373791 1.691934,6.294877 0.118203,0.257492 0.291938,0.466368 0.386076,0.464168 0.09414,-0.0022 1.444154,-0.88973 3.000035,-1.972288 z M 13.049394,27.720728 c 0,-0.564294 -1.650782,-5.718745 -1.919815,-5.994488 -0.418741,-0.429184 -4.5899011,-2.079505 -4.7967819,-1.897848 -0.094248,0.08276 0.036124,0.799129 0.2897164,1.591937 0.2535924,0.792808 0.6612845,2.066771 0.9059823,2.831031 0.244698,0.764258 0.5788073,1.493778 0.7424652,1.621157 0.4245611,0.330441 4.169221,2.05442 4.501093,2.072227 0.152537,0.0082 0.27734,-0.09262 0.27734,-0.224016 z m 24.2777,-2.679042 c 1.412875,-1.046707 2.568864,-2.026646 2.568864,-2.177646 0,-0.295339 -5.592723,-4.956452 -6.066296,-5.055803 -0.396655,-0.08321 -5.692943,3.625474 -5.692943,3.986441 0,0.26455 1.991163,2.0502 4.977196,4.463488 0.601935,0.486481 1.218152,0.839985 1.369372,0.785565 0.151219,-0.05442 1.430933,-0.955341 2.843807,-2.002045 z M 20.955537,21.998801 c 2.926605,-1.857727 4.536507,-3.040373 4.454867,-3.272575 -0.04525,-0.128696 -1.40285,-0.674444 -3.016895,-1.212773 -2.195182,-0.732156 -3.057287,-0.932792 -3.421433,-0.796263 -0.438927,0.164567 -1.862098,1.07775 -4.535979,2.910527 -0.518627,0.355486 -0.942958,0.763057 -0.942958,0.905714 0,0.258548 4.887727,2.372386 5.576482,2.41171 0.199364,0.01138 1.048026,-0.41447 1.885916,-0.94634 z m 23.322401,-1.832544 c 1.395016,-0.983342 2.274193,-1.746506 2.274193,-1.974101 0,-0.332203 -4.766062,-4.591929 -5.666494,-5.0645 -0.250538,-0.131489 -0.625997,-0.01831 -1.282134,0.386497 -1.633192,1.007604 -4.366866,3.013849 -4.366866,3.204848 0,0.314778 6.236175,5.242472 6.5094,5.143591 0.141741,-0.05129 1.281095,-0.814646 2.531901,-1.696335 z m -29.364278,-2.30094 2.640819,-1.75354 -0.976776,-0.382856 c -0.537227,-0.21057 -1.83934,-0.65335 -2.893585,-0.983954 l -1.916809,-0.6011 -1.522213,0.998281 c -0.8372178,0.549055 -1.9945233,1.293353 -2.5717905,1.653997 -0.5772672,0.360644 -1.0183514,0.749032 -0.9801871,0.863086 0.099477,0.297287 4.3632816,1.96032 5.0250416,1.959943 0.338504,-1.93e-4 1.583893,-0.683727 3.1955,-1.753857 z m 14.132727,0.907042 c 1.71343,-1.151726 3.084036,-2.28753 3.084036,-2.5557 0,-0.332008 -5.544426,-4.902997 -5.947137,-4.902997 -0.375149,0 -5.383338,3.331769 -5.523655,3.674691 -0.155331,0.379613 0.804242,1.474455 1.577485,1.79986 0.377081,0.158688 1.475875,0.551926 2.441768,0.873864 0.965891,0.321937 2.064159,0.848354 2.440597,1.169817 0.376435,0.321462 0.744331,0.587221 0.817544,0.590576 0.07321,0.0034 0.572427,-0.289195 1.109362,-0.650111 z m 7.632421,-5.540981 c 0.976238,-0.667619 1.774979,-1.356773 1.774979,-1.531453 0,-0.41349 -4.762256,-4.3326008 -5.269574,-4.3366098 -0.381994,-0.00302 -4.4644,2.5301899 -4.732049,2.9363218 -0.184764,0.280364 0.285286,0.742629 2.96357,2.914487 2.638152,2.139313 2.162335,2.137753 5.263074,0.01725 z M 28.762193,7.2448274 C 30.593754,6.0970512 31.251912,5.5730359 31.201306,5.3028417 31.100407,4.7641334 26.402003,0.90993551 25.846199,0.90993551 c -0.53489,0 -5.249762,2.87797629 -5.259967,3.21070539 -0.01004,0.3271468 4.94085,4.6794816 5.333245,4.6884698 0.183861,0.00421 1.463082,-0.6997162 2.842716,-1.5642833 z M 8.1298608,12.59435 C 6.5973421,12.022517 6.0904457,11.729692 6.6335834,11.729975 c 0.3741335,1.96e-4 3.0877246,1.180893 3.0877246,1.343485 0,0.06208 -0.024961,0.103973 -0.055468,0.09309 -0.030507,-0.01088 -0.721698,-0.268371 -1.5359791,-0.572205 z"
         id="path3072"
         inkscape:connector-curvature="0" />
      <path
         style="fill:#2c2e2b"
         d="m 25.301747,47.818945 c -0.299661,-0.196838 -0.494499,-0.543763 -0.496646,-0.884316 -0.002,-0.308225 -0.329044,-1.730827 -0.726894,-3.161339 L 23.354845,41.172358 20.84501,39.959612 c -1.38041,-0.66701 -2.57247,-1.154006 -2.649023,-1.082214 -0.07655,0.07179 0.187787,1.306421 0.587423,2.743621 0.399635,1.4372 0.695726,2.636529 0.657979,2.665179 -0.232746,0.176644 -1.510801,-0.572076 -1.510801,-0.885073 0,-0.795818 -1.538122,-5.322833 -1.92267,-5.658817 -0.664153,-0.580281 -4.500181,-2.179481 -4.712668,-1.964665 -0.108209,0.109397 0.08581,1.09328 0.448336,2.273597 0.351502,1.14441 0.639342,2.146451 0.639643,2.226757 3.11e-4,0.08031 -0.314131,0.02193 -0.698738,-0.129732 C 11.215579,39.963364 10.966502,39.709617 10.928434,39.378031 10.836063,38.573447 9.6881017,34.95382 9.4295884,34.65203 9.0931328,34.259252 5.8241815,32.745339 5.3125223,32.745339 c -0.4441395,0 -0.69428,-0.380963 -0.69428,-1.057391 0,-0.546951 0.1910048,-0.513005 2.1012547,0.37343 1.0433374,0.484152 1.7380721,0.697765 1.8609874,0.572205 C 8.7935605,32.415922 7.400956,27.419158 6.9990077,26.95913 6.7389375,26.661481 3.7329622,25.285944 2.8432629,25.057458 2.3987423,24.943298 2.2749058,24.762778 2.2197204,24.148496 c -0.04052,-0.451032 0.029995,-0.766511 0.1713292,-0.766511 0.132105,0 1.0367153,0.375579 2.0102451,0.834621 1.380153,0.650773 1.7700545,0.762553 1.7700545,0.507454 0,-0.526776 -1.5165235,-5.315549 -1.776309,-5.609105 -0.2751687,-0.310939 -3.80291983,-1.767131 -4.28102726,-1.767131 -0.41650333,0 -0.74730991,-0.381555 -0.93328515,-1.076459 -0.19355779,-0.723237 0.58938515,-1.215736 1.18492724,-0.745363 0.53348343,0.421358 3.70812627,1.613394 4.30299267,1.615715 0.6289666,0.0025 5.5290853,-3.0913 5.6643083,-3.576236 0.05456,-0.19567 0.313671,-0.384433 0.575799,-0.419474 0.439265,-0.05872 0.485286,-0.215941 0.587532,-2.007178 0.103379,-1.8110624 0.153348,-1.9776256 0.733458,-2.4448753 0.74301,-0.5984571 1.038248,-0.63865 0.894104,-0.1217219 -0.07817,0.2803326 0.624381,1.0017696 2.684815,2.7569872 1.53488,1.307515 2.918643,2.403763 3.07503,2.436106 0.483174,0.09993 5.924939,-3.500172 5.924939,-3.9197534 0,-0.2710506 -5.601077,-4.7741454 -5.938218,-4.7741454 -0.183023,0 -0.694003,0.1953212 -1.135511,0.4340474 -0.526556,0.284712 -0.65007,0.3124443 -0.358997,0.080605 0.244059,-0.1943934 0.868076,-0.5345466 1.386702,-0.7558959 0.518627,-0.2213495 0.942958,-0.4813376 0.942958,-0.5777516 0,-0.096414 1.123229,-0.8330179 2.496065,-1.6368976 1.372836,-0.8038795 2.735986,-1.65694911 3.029226,-1.89571024 0.682566,-0.55575931 0.807718,-0.54660497 1.409689,0.10311379 0.273762,0.29547375 1.623365,1.43511535 2.999123,2.53253695 1.375757,1.0974217 2.556665,2.2018982 2.624238,2.4543921 0.07279,0.2719769 0.382521,0.5330603 0.759964,0.6405997 0.76942,0.2192192 6.141972,4.7108634 6.488912,5.4249594 0.13526,0.278402 0.551373,0.630922 0.9247,0.783378 0.373325,0.152456 2.016288,1.410304 3.651028,2.795219 1.634741,1.384914 3.050771,2.518025 3.14673,2.518025 0.09596,0 0.239405,0.191852 0.318762,0.426337 0.150603,0.444998 -0.393932,1.446334 -0.786529,1.446334 -0.119993,0 -1.30464,0.758472 -2.632547,1.685491 l -2.414378,1.685494 -0.917329,1.888669 c -0.504531,1.038769 -0.835046,1.965836 -0.734478,2.06015 0.10057,0.09432 1.125104,-0.53405 2.276742,-1.396367 1.255194,-0.939854 2.130268,-1.465498 2.184715,-1.312318 0.04995,0.140542 -0.128439,0.401178 -0.396428,0.579192 -0.267988,0.178016 -1.507359,1.08699 -2.754158,2.019946 -2.170884,1.624428 -2.29665,1.763107 -2.969083,3.273912 -0.386198,0.867697 -0.610782,1.630605 -0.499076,1.695349 0.111704,0.06474 0.952399,-0.401956 1.868211,-1.037112 0.915809,-0.635156 1.715996,-1.154828 1.778189,-1.154828 0.366228,0 0.02405,0.666269 -0.424273,0.82612 -0.635762,0.226685 -2.645312,1.524325 -3.516696,2.270863 -0.703107,0.602368 -1.714632,2.536712 -1.714632,3.278895 0,0.331109 -0.187313,0.579542 -0.555619,0.736917 -0.767304,0.327865 -0.853921,0.153696 -0.424318,-0.85322 0.203428,-0.476797 0.310883,-0.922218 0.23879,-0.989827 -0.07209,-0.06761 -0.883332,0.417422 -1.802753,1.077846 -1.408635,1.011832 -1.671676,1.296611 -1.671676,1.809835 0,0.334983 0.09288,0.771809 0.20639,0.970722 0.113517,0.198915 0.125997,0.483656 0.02773,0.632758 -0.228823,0.347223 -0.336199,0.159583 -0.668104,-1.167529 -0.442576,-1.769632 -0.523255,-1.761617 -3.545315,0.352196 -1.482405,1.036883 -2.747227,2.012191 -2.810716,2.167352 -0.124441,0.304119 1.314688,5.504947 1.719636,6.214543 0.198591,0.347992 0.168481,0.482679 -0.157942,0.706521 -0.507764,0.348199 -0.557557,0.34616 -1.156614,-0.04734 z m -2.625572,-8.377784 c 0.204213,-0.309879 -1.607484,-6.10789 -1.990623,-6.370626 -0.71248,-0.488578 -4.544059,-2.045912 -4.692091,-1.907086 -0.195627,0.183461 1.248038,5.771134 1.575375,6.097455 0.241545,0.240797 4.528345,2.310585 4.841573,2.337649 0.08432,0.0073 0.203914,-0.06354 0.265766,-0.157392 z m 4.932162,-1.811137 c 1.398819,-0.975534 2.598854,-1.90945 2.666744,-2.075366 0.06789,-0.165917 -0.212738,-1.637443 -0.623619,-3.270058 -0.560765,-2.228183 -0.838147,-2.984844 -1.112355,-3.034368 -0.411864,-0.07438 -5.603337,3.308119 -5.79456,3.775446 -0.09559,0.233614 0.997736,4.649203 1.514843,6.117953 0.18537,0.526512 0.86236,0.220536 3.348947,-1.513607 z M 15.489991,35.694469 c 0,-0.304371 -0.858367,-3.40098 -1.468101,-5.296265 -0.12848,-0.399365 -4.9165544,-2.76257 -5.1512608,-2.542458 -0.1832449,0.171849 1.2862828,5.547945 1.6027518,5.86348 0.324076,0.323121 4.381763,2.330368 4.73927,2.344411 0.152537,0.006 0.27734,-0.160134 0.27734,-0.369168 z m 18.606754,-0.884826 c 1.360917,-1.015837 1.838983,-1.531354 2.428006,-2.618211 0.403388,-0.744326 0.700819,-1.445077 0.66096,-1.557221 -0.113635,-0.319704 -4.24637,2.930307 -4.529659,3.562155 -0.355087,0.791986 -0.590684,1.878166 -0.407382,1.878166 0.08443,0 0.91606,-0.5692 1.848075,-1.264889 z m 1.842103,-4.391122 c 2.130001,-1.619197 2.281771,-1.788384 3.09841,-3.453948 0.472285,-0.963244 0.8587,-1.788846 0.8587,-1.834672 0,-0.306207 -0.747899,0.159243 -3.084125,1.919385 l -2.658178,2.002707 -0.456935,1.410806 c -0.251315,0.775943 -0.456935,1.466497 -0.456935,1.534562 0,0.355687 0.669192,-0.03576 2.699063,-1.57884 z M 20.25184,31.093502 c 0.233888,-0.354904 -1.455961,-6.334619 -1.8923,-6.696113 -0.646574,-0.535667 -5.088323,-2.13896 -5.321065,-1.92069 -0.124492,0.116748 0.0043,0.83904 0.329752,1.848908 0.293731,0.911521 0.748788,2.345706 1.011238,3.18708 l 0.477183,1.52977 2.479927,1.115829 c 2.694575,1.212407 2.725957,1.222473 2.915265,0.935216 z m 5.277878,-1.793436 c 2.191439,-1.530842 2.824833,-2.080327 2.810946,-2.438563 -0.0099,-0.25434 -0.334348,-1.819199 -0.721085,-3.477466 -0.559957,-2.401008 -0.782992,-3.029286 -1.095164,-3.085031 -0.225694,-0.0403 -1.661208,0.78484 -3.383555,1.944884 -2.54912,1.716898 -2.991548,2.09652 -2.991548,2.566879 0,0.442518 1.257331,5.144151 1.662834,6.217955 0.205616,0.544492 0.976922,0.185836 3.717572,-1.728658 z M 13.049394,27.720728 c 0,-0.564294 -1.650782,-5.718745 -1.919815,-5.994488 -0.418741,-0.429184 -4.5899011,-2.079505 -4.7967819,-1.897848 -0.094248,0.08276 0.036124,0.799129 0.2897164,1.591937 0.2535924,0.792808 0.6612845,2.066771 0.9059823,2.831031 0.244698,0.764258 0.5788073,1.493778 0.7424652,1.621157 0.4245611,0.330441 4.169221,2.05442 4.501093,2.072227 0.152537,0.0082 0.27734,-0.09262 0.27734,-0.224016 z m 24.355003,-2.600084 c 1.492387,-1.103676 2.713433,-2.11787 2.713433,-2.253766 0,-0.374041 -5.909814,-5.102905 -6.377263,-5.102905 -0.550098,0 -5.82572,3.668795 -5.82572,4.051344 0,0.385059 5.963043,5.31201 6.429077,5.31201 0.19087,0 1.568084,-0.903008 3.060473,-2.006683 z m -16.44886,-3.121843 c 2.926605,-1.857727 4.536507,-3.040373 4.454867,-3.272575 -0.04525,-0.128696 -1.40285,-0.674444 -3.016895,-1.212773 -2.195182,-0.732156 -3.057287,-0.932792 -3.421433,-0.796263 -0.438927,0.164567 -1.862098,1.07775 -4.535979,2.910527 -0.518627,0.355486 -0.942958,0.763057 -0.942958,0.905714 0,0.258548 4.887727,2.372386 5.576482,2.41171 0.199364,0.01138 1.048026,-0.41447 1.885916,-0.94634 z m 23.322401,-1.832544 c 1.395016,-0.983342 2.274193,-1.746506 2.274193,-1.974101 0,-0.332203 -4.766062,-4.591929 -5.666494,-5.0645 -0.250538,-0.131489 -0.625997,-0.01831 -1.282134,0.386497 -1.633192,1.007604 -4.366866,3.013849 -4.366866,3.204848 0,0.314778 6.236175,5.242472 6.5094,5.143591 0.141741,-0.05129 1.281095,-0.814646 2.531901,-1.696335 z M 15.020082,18.150156 c 1.6094,-1.04645 2.889724,-2.006194 2.845163,-2.132764 -0.108635,-0.308567 -4.972857,-1.966934 -5.814277,-1.98227 -0.485024,-0.0088 -1.357887,0.44167 -3.2171497,1.660466 -1.4033431,0.919929 -2.5838144,1.808467 -2.6232695,1.974529 -0.039455,0.166061 -0.039455,0.302629 0,0.303484 0.039455,8.53e-4 1.2199264,0.466467 2.6232695,1.034695 1.4033427,0.568227 2.7109567,1.035696 2.9058067,1.038819 0.194851,0.0031 1.671056,-0.850509 3.280457,-1.896959 z m 14.026305,0.622203 c 1.71343,-1.151726 3.084036,-2.28753 3.084036,-2.5557 0,-0.332008 -5.544426,-4.902997 -5.947137,-4.902997 -0.375149,0 -5.383338,3.331769 -5.523655,3.674691 -0.155331,0.379613 0.804242,1.474455 1.577485,1.79986 0.377081,0.158688 1.475875,0.551926 2.441768,0.873864 0.965891,0.321937 2.064159,0.848354 2.440597,1.169817 0.376435,0.321462 0.744331,0.587221 0.817544,0.590576 0.07321,0.0034 0.572427,-0.289195 1.109362,-0.650111 z m 7.289623,-4.965304 c 2.433382,-1.629291 2.775784,-1.940754 2.601576,-2.366496 -0.1857,-0.453834 -5.276816,-4.496462 -5.662654,-4.496462 -0.582604,0 -5.380544,3.179937 -5.31075,3.519813 0.09436,0.459516 5.32112,4.791318 5.788896,4.797688 0.221296,0.003 1.383616,-0.65153 2.582932,-1.454543 z M 28.762193,7.2448274 C 30.593754,6.0970512 31.251912,5.5730359 31.201306,5.3028417 31.100407,4.7641334 26.402003,0.90993551 25.846199,0.90993551 c -0.53489,0 -5.249762,2.87797629 -5.259967,3.21070539 -0.01004,0.3271468 4.94085,4.6794816 5.333245,4.6884698 0.183861,0.00421 1.463082,-0.6997162 2.842716,-1.5642833 z M 7.1697751,12.034601 C 6.6149572,11.783986 6.5964905,11.755102 7.0588389,11.861081 7.6875147,12.005185 8.3941772,12.342966 8.0572648,12.338323 7.935235,12.336637 7.5358646,12.199966 7.1697751,12.034601 z"
         id="path3070"
         inkscape:connector-curvature="0" />
    </g>
  </g>
</svg>
