<?xml version="1.0" encoding="UTF-8" standalone="no"?>
<!-- Created with Inkscape (http://www.inkscape.org/) -->

<svg
   xmlns:dc="http://purl.org/dc/elements/1.1/"
   xmlns:cc="http://creativecommons.org/ns#"
   xmlns:rdf="http://www.w3.org/1999/02/22-rdf-syntax-ns#"
   xmlns:svg="http://www.w3.org/2000/svg"
   xmlns="http://www.w3.org/2000/svg"
   xmlns:sodipodi="http://sodipodi.sourceforge.net/DTD/sodipodi-0.dtd"
   xmlns:inkscape="http://www.inkscape.org/namespaces/inkscape"
   width="48"
   height="48"
   viewBox="0 0 48.000001 48.000001"
   id="svg15825"
   version="1.1"
   inkscape:version="0.91 r13725"
   sodipodi:docname="ISO7093.svg">
  <defs
     id="defs15827" />
  <sodipodi:namedview
     id="base"
     pagecolor="#ffffff"
     bordercolor="#666666"
     borderopacity="1.0"
     inkscape:pageopacity="0.0"
     inkscape:pageshadow="2"
     inkscape:zoom="12.625"
     inkscape:cx="21.895142"
     inkscape:cy="21.406878"
     inkscape:document-units="px"
     inkscape:current-layer="layer1"
     showgrid="false"
     units="px"
     inkscape:window-width="1260"
     inkscape:window-height="787"
     inkscape:window-x="184"
     inkscape:window-y="87"
     inkscape:window-maximized="0" />
  <metadata
     id="metadata15830">
    <rdf:RDF>
      <cc:Work
         rdf:about="">
        <dc:format>image/svg+xml</dc:format>
        <dc:type
           rdf:resource="http://purl.org/dc/dcmitype/StillImage" />
        <dc:title></dc:title>
      </cc:Work>
    </rdf:RDF>
  </metadata>
  <g
     inkscape:label="Layer 1"
     inkscape:groupmode="layer"
     id="layer1"
     transform="translate(0,-1004.3622)">
    <g
       id="g7653"
       transform="translate(6.2574257,9.029703)">
      <path
         sodipodi:nodetypes="ccccccccccccccccccc"
         transform="translate(0,1004.3622)"
         inkscape:connector-curvature="0"
         id="path7651"
         d="M 16.066646,-1.7203992 C 12.95374,-1.7058437 9.849273,-1.0050727 6.9906868,0.21524436 3.5179629,1.745607 0.33935533,4.3738284 -1.1309097,7.947144 c -1.2953687,3.235016 -1.9899507,7.848804 0.78794575,12.004099 2.37391885,3.989922 6.50132885,6.629354 10.82220295,8.094756 3.180626,1.067419 6.557544,1.582151 9.91221,1.368192 4.225559,-0.170023 8.457187,-1.492619 11.890234,-3.991954 4.902001,-4.18028 5.259726,-7.404331 5.44771,-11.084777 0.238414,-3.710008 -1.58947,-7.2886059 -4.230644,-9.8015391 -3.831908,-3.7632093 -9.145181,-5.7047084 -14.426998,-6.1840738 -1.000203,-0.063569 -2.003078,-0.080025 -3.005105,-0.072246 z m 1.412902,11.5386759 c 1.951841,-0.032337 3.887388,0.4655823 5.499845,1.6082923 1.278209,0.898452 1.638916,2.268994 1.638916,2.268994 0.03495,1.658277 -0.928954,2.56563 -2.256025,3.366525 -1.284968,0.759977 -2.786085,0.982276 -4.238398,0.948547 -2.482611,0.02163 -5.189655,-1.081738 -6.605353,-3.234438 -1.18089,-1.778694 -0.588476,-2.2129 1.089883,-3.491801 1.367322,-1.098987 3.138396,-1.5041605 4.871132,-1.4661193 z"
         style="opacity:1;fill:#ffaa00;fill-opacity:1;fill-rule:evenodd;stroke:none;stroke-width:1;stroke-linecap:round;stroke-linejoin:round;stroke-miterlimit:4;stroke-dasharray:none;stroke-dashoffset:0;stroke-opacity:1" />
      <path
         inkscape:connector-curvature="0"
         d="m -1.9266967,1015.3384 -0.1849607,1.9789"
         id="9"
         style="fill:none;stroke:#000000;stroke-width:1;stroke-linecap:round;stroke-linejoin:miter;stroke-miterlimit:4;stroke-dasharray:none" />
      <path
         inkscape:connector-curvature="0"
         d="m 37.762914,1019.0415 -0.184961,1.9785"
         id="10"
         style="fill:none;stroke:#000000;stroke-width:1;stroke-linecap:round;stroke-linejoin:miter;stroke-miterlimit:4;stroke-dasharray:none" />
      <path
         inkscape:connector-curvature="0"
         id="path4251"
         d="m 22.446756,1021.342 a 7.0423229,5.1640156 5.3305994 0 0 2.482654,-3.4985"
         style="fill:none;stroke:#000000;stroke-width:1;stroke-linecap:round;stroke-linejoin:miter;stroke-miterlimit:4;stroke-dasharray:none" />
      <path
         inkscape:connector-curvature="0"
         id="path4253"
         d="m 24.92941,1017.8435 a 7.0423229,5.1640156 5.3305994 0 0 -14.023276,-1.3077"
         style="fill:none;stroke:#000000;stroke-width:1;stroke-linecap:round;stroke-linejoin:miter;stroke-miterlimit:4;stroke-dasharray:none" />
      <path
         inkscape:connector-curvature="0"
         id="path4255"
         d="m 10.906134,1016.5358 a 7.0423229,5.1640156 5.3305994 0 0 11.540622,4.8062"
         style="fill:none;stroke:#000000;stroke-width:1;stroke-linecap:round;stroke-linejoin:miter;stroke-miterlimit:4;stroke-dasharray:none" />
      <path
         inkscape:connector-curvature="0"
         id="path4257"
         d="m 30.734055,1028.9391 a 19.931102,14.615158 5.3305994 0 0 7.028859,-9.8976"
         style="fill:none;stroke:#000000;stroke-width:1;stroke-linecap:round;stroke-linejoin:miter;stroke-miterlimit:4;stroke-dasharray:none" />
      <path
         inkscape:connector-curvature="0"
         id="path4259"
         d="m 37.762914,1019.0415 a 19.931102,14.615158 5.3305994 0 0 -39.6896107,-3.7031"
         style="fill:none;stroke:#000000;stroke-width:1;stroke-linecap:round;stroke-linejoin:miter;stroke-miterlimit:4;stroke-dasharray:none" />
      <path
         inkscape:connector-curvature="0"
         id="path4261"
         d="m -1.9266967,1015.3384 a 19.931102,14.615158 5.3305994 0 0 32.6607517,13.6007"
         style="fill:none;stroke:#000000;stroke-width:1;stroke-linecap:round;stroke-linejoin:miter;stroke-miterlimit:4;stroke-dasharray:none" />
      <path
         inkscape:connector-curvature="0"
         id="path4263"
         d="m 30.549201,1030.9177 a 19.931102,14.615158 5.3305994 0 0 7.028858,-9.8977"
         style="fill:none;stroke:#000000;stroke-width:1;stroke-linecap:round;stroke-linejoin:miter;stroke-miterlimit:4;stroke-dasharray:none" />
      <path
         inkscape:connector-curvature="0"
         id="path4265"
         d="m -2.1116574,1017.3173 a 19.931102,14.615158 5.3305994 0 0 32.6608584,13.6004"
         style="fill:none;stroke:#000000;stroke-width:1;stroke-linecap:round;stroke-linejoin:miter;stroke-miterlimit:4;stroke-dasharray:none" />
      <path
         inkscape:connector-curvature="0"
         id="path4267"
         d="m 24.706925,1018.8219 a 7.0423229,5.1640156 5.3305994 0 0 -13.761956,-1.2845"
         style="fill:none;stroke:#000000;stroke-width:1;stroke-linecap:round;stroke-linejoin:miter;stroke-miterlimit:4;stroke-dasharray:none" />
    </g>
  </g>
</svg>
